<svg height="511.99998pt" viewBox="1 1 511.99998 511.99998" width="511.99998pt" xmlns="http://www.w3.org/2000/svg"><path d="m438.9375 323.0625v-134.125l-25.070312 11.65625c-41.453126 19.28125-86.503907 29.617188-132.214844 30.335938.339844-46.113282 10.574218-91.613282 30.019531-133.429688l11.375-24.4375h-134.109375l11.65625 25.070312c19.28125 41.453126 29.617188 86.503907 30.335938 132.214844-46.113282-.339844-91.613282-10.574218-133.429688-30.019531l-24.4375-11.375v134.109375l25.070312-11.65625c41.453126-19.28125 86.503907-29.617188 132.214844-30.335938-.339844 46.113282-10.574218 91.613282-30.019531 133.429688l-11.375 24.4375h134.109375l-11.65625-25.070312c-19.28125-41.453126-29.617188-86.503907-30.335938-132.214844 46.113282.339844 91.613282 10.574218 133.429688 30.019531zm-160.332031-43.84375-45.824219-.613281.613281-45.824219 45.824219.613281zm0 0" fill="#eef1eb"/><path d="m93.867188 256c0-37.703125-11.460938-68.265625-25.601563-68.265625-14.136719 0-25.597656 30.5625-25.597656 68.265625s11.460937 68.265625 25.597656 68.265625c14.140625 0 25.601563-30.5625 25.601563-68.265625zm0 0" fill="#a9bfd1"/><path d="m0 247.46875h17.066406v17.066406h-17.066406zm0 0" fill="#ffd884"/><path d="m4.714844 212.433594 7.628906-15.265625 17.066406 8.535156-7.632812 15.261719zm0 0" fill="#ffd884"/><path d="m4.714844 299.5625 17.066406-8.535156 7.632812 15.265625-17.066406 8.53125zm0 0" fill="#ffd884"/><path d="m324.265625 443.734375c0-14.140625-30.5625-25.601563-68.265625-25.601563s-68.265625 11.460938-68.265625 25.601563c0 14.136719 30.5625 25.597656 68.265625 25.597656s68.265625-11.460937 68.265625-25.597656zm0 0" fill="#a9bfd1"/><g fill="#ffd884"><path d="m247.46875 494.933594h17.066406v17.066406h-17.066406zm0 0"/><path d="m197.148438 499.652344 8.535156-17.066406 15.265625 7.632812-8.535157 17.066406zm0 0"/><path d="m291.019531 490.207031 15.261719-7.632812 8.535156 17.066406-15.265625 7.632813zm0 0"/><path d="m494.933594 247.46875h17.066406v17.066406h-17.066406zm0 0"/><path d="m482.566406 306.308594 7.632813-15.265625 17.066406 8.53125-7.632813 15.265625zm0 0"/><path d="m482.566406 205.699219 17.066406-8.535157 7.632813 15.265626-17.066406 8.53125zm0 0"/><path d="m247.46875 0h17.066406v17.066406h-17.066406zm0 0"/><path d="m291.03125 21.789062 8.535156-17.066406 15.261719 7.632813-8.53125 17.066406zm0 0"/><path d="m197.164062 12.347656 15.265626-7.632812 8.53125 17.066406-15.265626 7.632812zm0 0"/></g><path d="m469.332031 256c0-37.703125-11.460937-68.265625-25.597656-68.265625-14.140625 0-25.601563 30.5625-25.601563 68.265625s11.460938 68.265625 25.601563 68.265625c14.136719 0 25.597656-30.5625 25.597656-68.265625zm0 0" fill="#a9bfd1"/><path d="m324.265625 68.265625c0-14.136719-30.5625-25.597656-68.265625-25.597656s-68.265625 11.460937-68.265625 25.597656c0 14.140625 30.5625 25.601563 68.265625 25.601563s68.265625-11.460938 68.265625-25.601563zm0 0" fill="#a9bfd1"/><path d="m290.132812 256c0 18.851562-15.28125 34.132812-34.132812 34.132812s-34.132812-15.28125-34.132812-34.132812 15.28125-34.132812 34.132812-34.132812 34.132812 15.28125 34.132812 34.132812zm0 0" fill="#345a84"/></svg>