<svg height="512pt" viewBox="0 0 512.00066 512" width="512pt" xmlns="http://www.w3.org/2000/svg"><path d="m352.035156 441.378906h88.277344v70.621094h-88.277344zm0 0" fill="#345a84"/><path d="m70.621094 450.207031h88.277344v61.792969h-88.277344zm0 0" fill="#345a84"/><path d="m225.105469 321.136719c-7.304688-7.3125-19.15625-7.320313-26.46875-.015625-.003907.007812-.007813.011718-.015625.015625l-39.722656 40.792969h-88.277344l-38.65625-38.65625c-7.3125-7.308594-19.167969-7.308594-26.480469 0-7.3125 7.316406-7.3125 19.167968 0 26.484374l65.136719 65.136719v44.140625h88.277344v-44.140625l66.207031-67.273437c7.308593-7.3125 7.308593-19.167969 0-26.484375zm0 0" fill="#eef1eb"/><path d="m105.90625 291.308594h17.707031c9.734375 0 17.628907 7.894531 17.628907 17.628906v35.363281c0 9.738281-7.894532 17.628907-17.628907 17.628907h-17.707031c-9.738281 0-17.628906-7.890626-17.628906-17.628907v-35.363281c0-9.734375 7.890625-17.628906 17.628906-17.628906zm0 0" fill="#77604f"/><path d="m44.136719 0h423.726562v247.171875h-423.726562zm0 0" fill="#a9bfd1"/><path d="m167.726562 105.929688h123.585938v105.933593h-123.585938zm0 0" fill="#ffd884"/><path d="m291.3125 105.929688h52.964844v105.933593h-52.964844zm0 0" fill="#e5b78f"/><path d="m291.3125 105.929688h-123.585938l-35.3125 35.3125h123.585938zm0 0" fill="#d2d7d6"/><path d="m291.3125 105.929688 35.308594 35.3125h52.964844l-35.308594-35.3125zm0 0" fill="#d2d7d6"/><path d="m229.519531 70.621094h70.617188v35.308594h-70.617188zm0 0" fill="#dd1c4b"/><g fill="#ffd884"><path d="m256 26.484375h17.65625v17.652344h-17.65625zm0 0"/><path d="m291.3125 26.484375h17.652344v17.652344h-17.652344zm0 0"/><path d="m320.378906 46.726562 17.652344-17.648437 12.484375 12.480469-17.652344 17.652344zm0 0"/><path d="m220.691406 26.484375h17.652344v17.652344h-17.652344zm0 0"/><path d="m179.132812 41.554688 12.484376-12.484376 17.652343 17.652344-12.484375 12.484375zm0 0"/></g><path d="m506.519531 321.136719c-7.304687-7.3125-19.15625-7.320313-26.46875-.015625-.003906.007812-.007812.011718-.015625.015625l-39.722656 40.792969h-88.277344l-38.65625-38.65625c-7.3125-7.308594-19.167968-7.308594-26.480468 0-7.3125 7.316406-7.3125 19.167968 0 26.484374l65.136718 65.136719v44.140625h88.277344v-44.140625l66.207031-67.273437c7.308594-7.3125 7.308594-19.167969 0-26.484375zm0 0" fill="#88d0ef"/><path d="m387.320312 291.308594h17.707032c9.738281 0 17.628906 7.894531 17.628906 17.628906v35.363281c0 9.738281-7.890625 17.628907-17.628906 17.628907h-17.707032c-9.738281 0-17.628906-7.890626-17.628906-17.628907v-35.363281c0-9.734375 7.890625-17.628906 17.628906-17.628906zm0 0" fill="#77604f"/></svg>