<svg height="512pt" viewBox="0 -85 512.00001 512" width="512pt" xmlns="http://www.w3.org/2000/svg"><path d="m224.5625 0h287.4375v215.578125h-287.4375zm0 0" fill="#d1e3ee"/><path d="m314.386719 170.667969h152.703125v17.964843h-152.703125zm0 0" fill="#77604f"/><path d="m251.507812 26.949219h17.964844v71.859375h-17.964844zm0 0" fill="#77604f"/><path d="m467.085938 152.703125h17.964843v17.964844h-17.964843zm0 0" fill="#77604f"/><path d="m422.175781 125.753906h17.964844v26.949219h-17.964844zm0 0" fill="#a9bfd1"/><path d="m386.246094 116.773438h17.964844v35.929687h-17.964844zm0 0" fill="#a9bfd1"/><path d="m350.316406 98.804688h17.964844v53.898437h-17.964844zm0 0" fill="#a9bfd1"/><path d="m431.15625 53.894531v14.246094l-20.59375-20.597656c-2.542969-2.542969-6.355469-3.328125-9.691406-1.992188l-40.773438 16.3125-41.085937-24.648437-9.25 15.394531 44.910156 26.949219c2.414063 1.4375 5.355469 1.679687 7.96875.644531l39.40625-15.773437 16.410156 16.414062h-14.246093v17.964844h35.929687c4.960937 0 8.980469-4.023438 8.980469-8.984375v-35.929688zm0 0" fill="#a9bfd1"/><path d="m0 89.824219h323.367188v251.507812h-323.367188zm0 0" fill="#eef1eb"/><path d="m260.492188 305.402344h-215.578126c-4.960937 0-8.984374-4.019532-8.984374-8.980469v-170.667969h17.964843v161.683594h206.597657zm0 0" fill="#345a84"/><g fill="#ffd884"><path d="m71.859375 233.542969h17.964844v35.929687h-17.964844zm0 0"/><path d="m107.789062 224.5625h17.964844v44.910156h-17.964844zm0 0"/><path d="m143.71875 206.597656h17.964844v62.875h-17.964844zm0 0"/><path d="m179.648438 188.632812h17.964843v80.839844h-17.964843zm0 0"/><path d="m215.578125 161.683594h17.964844v107.789062h-17.964844zm0 0"/></g><path d="m197.613281 116.773438h-35.929687v17.964843h12.683594c-29.0625 23.328125-65.238282 36.007813-102.507813 35.929688v17.964843c42.699219.101563 84.0625-14.890624 116.773437-42.335937v15.386719h17.964844v-35.929688c0-4.960937-4.023437-8.980468-8.984375-8.980468zm0 0" fill="#dd1c4b"/><path d="m260.492188 269.472656h17.964843v17.964844h-17.964843zm0 0" fill="#345a84"/></svg>