<svg height="512pt" viewBox="0 -18 512.00004 512" width="512pt" xmlns="http://www.w3.org/2000/svg"><path d="m494.34375 194.207031v26.484375c0 24.375-19.761719 44.136719-44.136719 44.136719s-44.136719-19.761719-44.136719-44.136719v-26.484375zm0 0" fill="#e5b78f"/><path d="m450.207031 141.242188c-15.050781-.003907-29.382812 6.417968-39.398437 17.65625h-49.582032c-14.238281 0-25.777343 11.539062-25.777343 25.773437v62.5h35.308593v-52.964844h132.414063c0-29.253906-23.710937-52.964843-52.964844-52.964843zm0 0" fill="#77604f"/><path d="m27.699219 353.101562h68.1875c15.296875 0 27.699219 12.402344 27.699219 27.703126v95.886718h-123.585938v-95.886718c0-15.300782 12.402344-27.703126 27.699219-27.703126zm0 0" fill="#d1e3ee"/><path d="m416.113281 264.828125h68.1875c15.296875 0 27.699219 12.402344 27.699219 27.699219v95.886718h-123.585938v-95.886718c0-15.296875 12.402344-27.699219 27.699219-27.699219zm0 0" fill="#ee8eb4"/><path d="m476.691406 335.449219h35.308594v52.964843h-35.308594zm0 0" fill="#e5b78f"/><path d="m388.414062 335.449219h35.308594v52.964843h-35.308594zm0 0" fill="#e5b78f"/><g fill="#a55f40"><path d="m423.722656 167.722656h17.65625v26.484375h-17.65625zm0 0"/><path d="m459.035156 167.722656h17.65625v26.484375h-17.65625zm0 0"/><path d="m17.65625 282.484375v-53.0625c0-19.449219 15.765625-35.214844 35.210938-35.214844h106.03125v35.636719c0 29.070312-23.570313 52.640625-52.640626 52.640625zm0 0"/></g><path d="m485.515625 52.964844c0-29.25-15.808594-52.964844-35.308594-52.964844s-35.308593 23.714844-35.308593 52.964844c0 29.253906 15.808593 52.964844 35.308593 52.964844s35.308594-23.710938 35.308594-52.964844zm0 0" fill="#a9bfd1"/><path d="m441.378906 61.792969h17.65625v17.65625h-17.65625zm0 0" fill="#345a84"/><path d="m441.378906 26.484375h17.65625v17.652344h-17.65625zm0 0" fill="#345a84"/><path d="m35.308594 423.722656h52.96875v52.96875h-52.96875zm0 0" fill="#345a84"/><path d="m26.484375 353.101562h17.652344v70.621094h-17.652344zm0 0" fill="#77604f"/><path d="m79.449219 353.101562h17.65625v70.621094h-17.65625zm0 0" fill="#77604f"/><path d="m282.484375 26.484375h44.136719v17.652344h-44.136719zm0 0" fill="#ffd884"/><path d="m282.484375 61.792969h44.136719v17.65625h-44.136719zm0 0" fill="#ffd884"/><path d="m273.65625 406.070312h-123.585938v-17.65625h123.585938c9.75 0 17.65625-7.90625 17.65625-17.65625s-7.90625-17.65625-17.65625-17.65625h-52.964844c-19.503906 0-35.3125-15.808593-35.3125-35.308593s15.808594-35.308594 35.3125-35.308594h52.964844c9.75 0 17.652344-7.90625 17.652344-17.65625s-7.902344-17.65625-17.652344-17.65625h-52.964844c-19.503906 0-35.3125-15.808594-35.3125-35.308594 0-19.503906 15.808594-35.3125 35.3125-35.3125h52.964844c9.75 0 17.652344-7.902343 17.652344-17.652343 0-9.753907-7.902344-17.65625-17.652344-17.65625h-136.828125c-26.8125 0-48.550781-21.738282-48.550781-48.550782 0-26.816406 21.738281-48.554687 48.550781-48.554687h101.515625v17.65625h-101.515625c-17.0625 0-30.898437 13.832031-30.898437 30.898437 0 17.0625 13.835937 30.894532 30.898437 30.894532h136.828125c19.5 0 35.308594 15.808593 35.308594 35.3125 0 19.5-15.808594 35.308593-35.308594 35.308593h-52.964844c-9.753906 0-17.65625 7.902344-17.65625 17.65625 0 9.75 7.902344 17.652344 17.65625 17.652344h52.964844c19.5 0 35.308594 15.8125 35.308594 35.3125s-15.808594 35.308594-35.308594 35.308594h-52.964844c-9.753906 0-17.65625 7.90625-17.65625 17.65625s7.902344 17.65625 17.65625 17.65625h52.964844c19.5 0 35.308594 15.808593 35.308594 35.308593s-15.808594 35.3125-35.308594 35.3125zm0 0" fill="#a9bfd1"/><path d="m273.65625 8.828125h17.652344v88.273437h-17.652344c-24.378906 0-44.140625-19.761718-44.140625-44.136718s19.761719-44.136719 44.140625-44.136719zm0 0" fill="#eef1eb"/><path d="m105.929688 247.171875v61.792969c0 24.378906-19.761719 44.136718-44.136719 44.136718s-44.136719-19.757812-44.136719-44.136718v-61.792969zm0 0" fill="#e5b78f"/><path d="m87.933594 306.140625c-5.433594 1.808594-11.363282 1.386719-16.484375-1.171875-6.078125-3.039062-13.234375-3.039062-19.3125 0-5.121094 2.558594-11.050781 2.980469-16.484375 1.171875l-17.996094-6.613281v9.4375c0 24.378906 19.761719 44.140625 44.136719 44.140625s44.136719-19.761719 44.136719-44.140625v-9.382813zm0 0" fill="#a55f40"/></svg>