<svg height="511pt" viewBox="1 -134 511.99998 511" width="511pt" xmlns="http://www.w3.org/2000/svg"><path d="m512 165.382812v78.101563h-138.847656v-86.78125h130.167968zm0 0" fill="#e5b78f"/><path d="m8.679688 165.382812v78.101563h138.847656v-86.78125h-130.171875zm0 0" fill="#e5b78f"/><path d="m60.746094.5h277.695312v208.269531h-277.695312zm0 0" fill="#d1e3ee"/><path d="m338.441406 43.890625-138.847656 69.421875-138.847656-69.421875v-43.390625h277.695312zm0 0" fill="#88d0ef"/><path d="m234.304688 113.3125c0 19.171875-15.539063 34.710938-34.710938 34.710938s-34.710938-15.539063-34.710938-34.710938c0-19.167969 15.539063-34.710938 34.710938-34.710938s34.710938 15.542969 34.710938 34.710938zm0 0" fill="#dd1c4b"/><g fill="#345a84"><path d="m0 17.855469h34.710938v17.355469h-34.710938zm0 0"/><path d="m0 52.566406h34.710938v17.359375h-34.710938zm0 0"/><path d="m17.355469 87.28125h17.355469v17.355469h-17.355469zm0 0"/></g><path d="m425.21875 174.058594h34.710938v17.355468l17.359374 17.355469h34.710938v-43.386719l-26.035156-26.035156h-60.746094c-9.542969 0-17.355469 7.808594-17.355469 17.355469s7.8125 17.355469 17.355469 17.355469zm0 0" fill="#fae9c4"/><path d="m95.457031 174.058594h-34.710937v17.355468l-17.355469 17.355469h-34.710937v-43.386719l26.03125-26.035156h60.746093c9.546875 0 17.355469 7.808594 17.355469 17.355469s-7.808594 17.355469-17.355469 17.355469zm0 0" fill="#fae9c4"/></svg>