<svg height="512pt" viewBox="0 -44 512.00065 512" width="512pt" xmlns="http://www.w3.org/2000/svg"><path d="m0 70.621094h512v353.101562h-512zm0 0" fill="#d1e3ee"/><path d="m0 70.621094h512v70.621094h-512zm0 0" fill="#a9bfd1"/><path d="m0 388.414062h512v35.308594h-512zm0 0" fill="#a9bfd1"/><path d="m156.128906 204.609375 7.222656-7.21875c23.597657-23.601563 61.863282-23.601563 85.464844 0l7.203125 7.203125-7.222656 7.21875c-23.601563 23.601562-61.863281 23.601562-85.464844 0 0 0-7.203125-7.203125-7.203125-7.203125zm0 0" fill="#8fc33e"/><path d="m247.171875 97.101562h17.65625v167.726563h-17.65625zm0 0" fill="#1f8b94"/><path d="m441.378906 70.621094h70.621094v70.621094h-70.621094zm0 0" fill="#88d0ef"/><path d="m467.863281 97.101562h17.65625v17.65625h-17.65625zm0 0" fill="#dd1c4b"/><path d="m316.238281 0h45.691407v45.691406c0 33.269532-26.96875 60.238282-60.238282 60.238282h-45.691406v-45.691407c0-33.269531 26.96875-60.238281 60.238281-60.238281zm0 0" fill="#4fb86a"/><path d="m185.378906 35.308594h10.1875c33.375 0 60.433594 27.058594 60.433594 60.4375v10.183594h-10.1875c-33.375 0-60.433594-27.054688-60.433594-60.433594zm0 0" fill="#4fb86a"/><path d="m167.722656 344.277344c0-48.753906 39.523438-88.277344 88.277344-88.277344s88.277344 39.523438 88.277344 88.277344zm0 0" fill="#e5b78f"/><path d="m238.34375 300.136719h17.65625v17.65625h-17.65625zm0 0" fill="#a55f40"/><path d="m256 282.484375h17.65625v17.652344h-17.65625zm0 0" fill="#a55f40"/><path d="m141.242188 335.449219h229.515624v17.65625h-229.515624zm0 0" fill="#77604f"/></svg>