<svg height="512pt" viewBox="0 -21 512 512" width="512pt" xmlns="http://www.w3.org/2000/svg"><path d="m418.132812 247.46875h34.132813v59.730469h-34.132813zm0 0" fill="#a55f40"/><path d="m349.867188 247.46875h34.132812v59.730469h-34.132812zm0 0" fill="#a55f40"/><g fill="#345a84"><path d="m0 247.46875h17.066406v17.066406h-17.066406zm0 0"/><path d="m0 196.265625h17.066406v17.066406h-17.066406zm0 0"/><path d="m0 298.667969h42.667969v17.066406h-42.667969zm0 0"/><path d="m0 349.867188h42.667969v17.066406h-42.667969zm0 0"/><path d="m0 401.066406h42.667969v17.066406h-42.667969zm0 0"/><path d="m0 452.265625h42.667969v17.066406h-42.667969zm0 0"/><path d="m59.734375 349.867188h42.664063v17.066406h-42.664063zm0 0"/><path d="m59.734375 401.066406h42.664063v17.066406h-42.664063zm0 0"/><path d="m59.734375 452.265625h42.664063v17.066406h-42.664063zm0 0"/><path d="m119.46875 349.867188h42.664062v17.066406h-42.664062zm0 0"/><path d="m119.46875 401.066406h42.664062v17.066406h-42.664062zm0 0"/><path d="m119.46875 452.265625h42.664062v17.066406h-42.664062zm0 0"/><path d="m179.199219 349.867188h42.667969v17.066406h-42.667969zm0 0"/><path d="m179.199219 401.066406h42.667969v17.066406h-42.667969zm0 0"/><path d="m179.199219 452.265625h42.667969v17.066406h-42.667969zm0 0"/><path d="m238.933594 349.867188h42.667968v17.066406h-42.667968zm0 0"/><path d="m238.933594 290.132812h42.667968v17.066407h-42.667968zm0 0"/><path d="m238.933594 401.066406h42.667968v17.066406h-42.667968zm0 0"/><path d="m238.933594 452.265625h42.667968v17.066406h-42.667968zm0 0"/><path d="m298.667969 349.867188h42.664062v17.066406h-42.664062zm0 0"/><path d="m298.667969 290.132812h25.597656v17.066407h-25.597656zm0 0"/><path d="m298.667969 401.066406h42.664062v17.066406h-42.664062zm0 0"/><path d="m298.667969 452.265625h42.664062v17.066406h-42.664062zm0 0"/><path d="m298.667969 42.667969h42.664062v17.066406h-42.664062zm0 0"/><path d="m298.667969 93.867188h42.664062v17.066406h-42.664062zm0 0"/><path d="m298.667969 145.066406h42.664062v17.066406h-42.664062zm0 0"/><path d="m358.398438 42.667969h42.667968v17.066406h-42.667968zm0 0"/><path d="m358.398438 93.867188h42.667968v17.066406h-42.667968zm0 0"/><path d="m358.398438 145.066406h42.667968v17.066406h-42.667968zm0 0"/><path d="m418.132812 42.667969h42.667969v17.066406h-42.667969zm0 0"/><path d="m298.667969 0h42.664062v17.066406h-42.664062zm0 0"/><path d="m358.398438 0h42.667968v17.066406h-42.667968zm0 0"/><path d="m418.132812 0h42.667969v17.066406h-42.667969zm0 0"/><path d="m418.132812 93.867188h42.667969v17.066406h-42.667969zm0 0"/><path d="m418.132812 145.066406h42.667969v17.066406h-42.667969zm0 0"/><path d="m119.46875 42.667969h42.664062v17.066406h-42.664062zm0 0"/><path d="m119.46875 93.867188h42.664062v17.066406h-42.664062zm0 0"/><path d="m179.199219 42.667969h42.667969v17.066406h-42.667969zm0 0"/><path d="m179.199219 93.867188h42.667969v17.066406h-42.667969zm0 0"/><path d="m179.199219 145.066406h42.667969v17.066406h-42.667969zm0 0"/><path d="m238.933594 42.667969h42.667968v17.066406h-42.667968zm0 0"/><path d="m119.46875 0h42.664062v17.066406h-42.664062zm0 0"/><path d="m59.734375 42.667969h42.664063v17.066406h-42.664063zm0 0"/><path d="m59.734375 93.867188h42.664063v17.066406h-42.664063zm0 0"/><path d="m59.734375 0h42.664063v17.066406h-42.664063zm0 0"/><path d="m0 42.667969h42.667969v17.066406h-42.667969zm0 0"/><path d="m0 93.867188h42.667969v17.066406h-42.667969zm0 0"/><path d="m0 145.066406h42.667969v17.066406h-42.667969zm0 0"/><path d="m0 0h42.667969v17.066406h-42.667969zm0 0"/><path d="m179.199219 0h42.667969v17.066406h-42.667969zm0 0"/><path d="m238.933594 0h42.667968v17.066406h-42.667968zm0 0"/><path d="m238.933594 93.867188h42.667968v17.066406h-42.667968zm0 0"/><path d="m238.933594 145.066406h42.667968v17.066406h-42.667968zm0 0"/><path d="m358.398438 349.867188h42.667968v17.066406h-42.667968zm0 0"/><path d="m358.398438 401.066406h42.667968v17.066406h-42.667968zm0 0"/><path d="m358.398438 452.265625h42.667968v17.066406h-42.667968zm0 0"/><path d="m418.132812 349.867188h42.667969v17.066406h-42.667969zm0 0"/><path d="m418.132812 401.066406h42.667969v17.066406h-42.667969zm0 0"/><path d="m418.132812 452.265625h42.667969v17.066406h-42.667969zm0 0"/><path d="m477.867188 349.867188h34.132812v17.066406h-34.132812zm0 0"/><path d="m477.867188 401.066406h34.132812v17.066406h-34.132812zm0 0"/><path d="m477.867188 452.265625h34.132812v17.066406h-34.132812zm0 0"/><path d="m494.933594 196.265625h17.066406v17.066406h-17.066406zm0 0"/><path d="m494.933594 247.46875h17.066406v17.066406h-17.066406zm0 0"/><path d="m477.867188 298.667969h34.132812v17.066406h-34.132812zm0 0"/><path d="m477.867188 42.667969h34.132812v17.066406h-34.132812zm0 0"/><path d="m477.867188 93.867188h34.132812v17.066406h-34.132812zm0 0"/><path d="m477.867188 145.066406h34.132812v17.066406h-34.132812zm0 0"/><path d="m477.867188 0h34.132812v17.066406h-34.132812zm0 0"/><path d="m204.800781 290.132812h17.066407v17.066407h-17.066407zm0 0"/></g><path d="m194.296875 221.867188c-9.425781-41.355469-50.59375-67.238282-91.949219-57.8125-41.351562 9.425781-67.238281 50.589843-57.8125 91.945312 9.425782 41.355469 50.59375 67.238281 91.945313 57.8125 28.78125-6.558594 51.253906-29.03125 57.816406-57.8125h275.035156v-34.132812zm-74.828125 51.199218c-18.851562 0-34.136719-15.28125-34.136719-34.132812 0-18.851563 15.285157-34.132813 34.136719-34.132813 18.847656 0 34.132812 15.28125 34.132812 34.132813 0 18.851562-15.285156 34.132812-34.132812 34.132812zm0 0" fill="#ffd884"/></svg>