<svg height="512.00066pt" viewBox="0 0 512.00066 512.00066" width="512.00066pt" xmlns="http://www.w3.org/2000/svg"><path d="m150.273438 0h211.453124c19.613282 0 35.515626 15.898438 35.515626 35.511719v440.976562c0 19.613281-15.902344 35.511719-35.515626 35.511719h-211.453124c-19.613282 0-35.515626-15.898438-35.515626-35.511719v-440.976562c0-19.613281 15.902344-35.511719 35.515626-35.511719zm0 0" fill="#d1e3ee"/><path d="m114.757812 52.964844h282.484376v406.070312h-282.484376zm0 0" fill="#345a84"/><path d="m202.53125 256h106.9375c24.097656 0 43.632812 19.535156 43.632812 43.636719v80.453125c0 24.097656-19.535156 43.632812-43.632812 43.632812h-106.9375c-24.097656 0-43.632812-19.535156-43.632812-43.632812v-80.453125c0-24.101563 19.535156-43.636719 43.632812-43.636719zm0 0" fill="#88d0ef"/><path d="m36.324219 88.277344h121.558593c20.0625 0 36.324219 16.261718 36.324219 36.324218v68.589844c0 20.0625-16.261719 36.324219-36.324219 36.324219h-121.558593c-20.0625 0-36.324219-16.261719-36.324219-36.324219v-68.589844c0-20.0625 16.261719-36.324218 36.324219-36.324218zm0 0" fill="#fae9c4"/><path d="m354.117188 88.277344h121.558593c20.0625 0 36.324219 16.261718 36.324219 36.324218v68.589844c0 20.0625-16.261719 36.324219-36.324219 36.324219h-121.558593c-20.058594 0-36.324219-16.261719-36.324219-36.324219v-68.589844c0-20.0625 16.265625-36.324218 36.324219-36.324218zm0 0" fill="#dd1c4b"/><path d="m397.242188 123.585938v70.621093l52.964843-35.308593zm0 0" fill="#fff"/><path d="m194.207031 124.601562c0-20.0625-16.265625-36.324218-36.324219-36.324218h-121.558593c-20.0625 0-36.324219 16.261718-36.324219 36.324218v34.296876h194.207031zm0 0" fill="#e5b78f"/><path d="m286.894531 361.929688h-22.066406v-35.308594h13.242187c7.3125 0 13.238282-5.929688 13.238282-13.242188s-5.925782-13.242187-13.238282-13.242187h-15.6875c-3.378906-5.890625-9.851562-9.304688-16.621093-8.773438-9.425781 1.121094-16.457031 9.21875-16.246094 18.707031v59.804688c0 10.238281 8.300781 18.539062 18.539063 18.539062h38.84375c7.3125 0 13.238281-5.929687 13.238281-13.242187s-5.925781-13.242187-13.242188-13.242187zm0 0" fill="#fff"/><path d="m132.414062 158.898438c0 19.5-15.808593 35.308593-35.308593 35.308593-19.503907 0-35.3125-15.808593-35.3125-35.308593 0-19.503907 15.808593-35.3125 35.3125-35.3125 19.5 0 35.308593 15.808593 35.308593 35.3125zm0 0" fill="#a55f40"/></svg>