<svg height="512.00003pt" viewBox="0 0 512.00003 512.00003" width="512.00003pt" xmlns="http://www.w3.org/2000/svg"><g fill="#88d0ef"><path d="m379.585938 317.792969h17.65625v17.65625h-17.65625zm0 0"/><path d="m379.585938 282.484375h17.65625v17.652344h-17.65625zm0 0"/><path d="m379.585938 247.171875h17.65625v17.65625h-17.65625zm0 0"/><path d="m379.585938 211.863281h17.65625v17.652344h-17.65625zm0 0"/><path d="m379.585938 176.550781h17.65625v17.65625h-17.65625zm0 0"/><path d="m397.242188 300.136719h17.65625v17.65625h-17.65625zm0 0"/><path d="m397.242188 264.828125h17.65625v17.65625h-17.65625zm0 0"/><path d="m397.242188 229.515625h17.65625v17.65625h-17.65625zm0 0"/><path d="m397.242188 194.207031h17.65625v17.65625h-17.65625zm0 0"/><path d="m397.242188 335.449219h17.65625v32.730469h-17.65625zm0 0"/><path d="m397.242188 142.34375h17.65625v34.207031h-17.65625zm0 0"/><path d="m142.34375 397.242188h34.207031v17.65625h-34.207031zm0 0"/><path d="m176.550781 379.585938h17.65625v17.65625h-17.65625zm0 0"/><path d="m194.207031 397.242188h17.65625v17.65625h-17.65625zm0 0"/><path d="m211.863281 379.585938h17.652344v17.65625h-17.652344zm0 0"/><path d="m229.515625 397.242188h17.65625v17.65625h-17.65625zm0 0"/><path d="m247.171875 379.585938h17.65625v17.65625h-17.65625zm0 0"/><path d="m264.828125 397.242188h17.65625v17.65625h-17.65625zm0 0"/><path d="m282.484375 379.585938h17.652344v17.65625h-17.652344zm0 0"/><path d="m300.136719 397.242188h17.65625v17.65625h-17.65625zm0 0"/><path d="m317.792969 379.585938h17.65625v17.65625h-17.65625zm0 0"/><path d="m335.449219 397.242188h34.578125v17.65625h-34.578125zm0 0"/><path d="m114.757812 317.792969h17.65625v17.65625h-17.65625zm0 0"/><path d="m97.105469 300.136719h17.652343v17.65625h-17.652343zm0 0"/><path d="m114.757812 282.484375h17.65625v17.652344h-17.65625zm0 0"/><path d="m97.105469 264.828125h17.652343v17.65625h-17.652343zm0 0"/><path d="m114.757812 247.171875h17.65625v17.65625h-17.65625zm0 0"/><path d="m97.105469 229.515625h17.652343v17.65625h-17.652343zm0 0"/><path d="m114.757812 211.863281h17.65625v17.652344h-17.65625zm0 0"/><path d="m97.105469 194.207031h17.652343v17.65625h-17.652343zm0 0"/><path d="m114.757812 176.550781h17.65625v17.65625h-17.65625zm0 0"/><path d="m97.105469 141.613281h17.652343v34.9375h-17.652343zm0 0"/><path d="m176.550781 114.757812h17.65625v17.65625h-17.65625zm0 0"/><path d="m335.449219 97.105469h34.207031v17.652343h-34.207031zm0 0"/><path d="m317.792969 114.757812h17.65625v17.65625h-17.65625zm0 0"/><path d="m300.136719 97.105469h17.65625v17.652343h-17.65625zm0 0"/><path d="m282.484375 114.757812h17.652344v17.65625h-17.652344zm0 0"/><path d="m264.828125 97.105469h17.65625v17.652343h-17.65625zm0 0"/><path d="m194.207031 97.105469h17.65625v17.652343h-17.65625zm0 0"/><path d="m229.515625 97.105469h17.65625v17.652343h-17.65625zm0 0"/><path d="m211.863281 114.757812h17.652344v17.65625h-17.652344zm0 0"/><path d="m247.171875 114.757812h17.65625v17.65625h-17.65625zm0 0"/><path d="m97.105469 335.449219h17.652343v34.9375h-17.652343zm0 0"/><path d="m141.613281 97.105469h34.9375v17.652343h-34.9375zm0 0"/><path d="m247.171875 414.898438h17.65625v51.859374h-17.65625zm0 0"/><path d="m47.820312 247.171875h49.285157v17.65625h-49.285157zm0 0"/><path d="m414.898438 247.171875h50.757812v17.65625h-50.757812zm0 0"/><path d="m247.171875 45.972656h17.65625v51.132813h-17.65625zm0 0"/><path d="m128.753906 141.246094 12.484375-12.484375 56.621094 56.621093-12.484375 12.484376zm0 0"/><path d="m314.136719 185.375 56.621093-56.621094 12.484376 12.484375-56.621094 56.621094zm0 0"/><path d="m314.136719 326.625 12.484375-12.484375 56.621094 56.621094-12.484376 12.484375zm0 0"/><path d="m128.757812 370.757812 56.621094-56.621093 12.484375 12.484375-56.621093 56.617187zm0 0"/></g><path d="m353.105469 256c0 53.628906-43.476563 97.105469-97.105469 97.105469s-97.101562-43.476563-97.101562-97.105469 43.472656-97.101562 97.101562-97.101562 97.105469 43.472656 97.105469 97.101562zm0 0" fill="#a9bfd1"/><path d="m512 256c0 14.625-11.855469 26.484375-26.484375 26.484375-14.625 0-26.480469-11.859375-26.480469-26.484375s11.855469-26.484375 26.480469-26.484375c14.628906 0 26.484375 11.859375 26.484375 26.484375zm0 0" fill="#345a84"/><path d="m282.484375 26.484375c0 14.625-11.859375 26.480469-26.484375 26.480469s-26.484375-11.855469-26.484375-26.480469c0-14.628906 11.859375-26.484375 26.484375-26.484375s26.484375 11.855469 26.484375 26.484375zm0 0" fill="#345a84"/><path d="m432.550781 114.757812c0 19.5-15.808593 35.3125-35.308593 35.3125s-35.3125-15.8125-35.3125-35.3125 15.8125-35.308593 35.3125-35.308593 35.308593 15.808593 35.308593 35.308593zm0 0" fill="#345a84"/><path d="m432.550781 397.242188c0 19.5-15.808593 35.308593-35.308593 35.308593s-35.3125-15.808593-35.3125-35.308593 15.8125-35.3125 35.3125-35.3125 35.308593 15.8125 35.308593 35.3125zm0 0" fill="#345a84"/><path d="m150.070312 114.757812c0 19.5-15.8125 35.3125-35.3125 35.3125s-35.308593-15.8125-35.308593-35.3125 15.808593-35.308593 35.308593-35.308593 35.3125 15.808593 35.3125 35.308593zm0 0" fill="#345a84"/><path d="m150.070312 397.242188c0 19.5-15.8125 35.308593-35.3125 35.308593s-35.308593-15.808593-35.308593-35.308593 15.808593-35.3125 35.308593-35.3125 35.3125 15.8125 35.3125 35.3125zm0 0" fill="#345a84"/><path d="m52.964844 256c0 14.625-11.855469 26.484375-26.480469 26.484375-14.628906 0-26.484375-11.859375-26.484375-26.484375s11.855469-26.484375 26.484375-26.484375c14.625 0 26.480469 11.859375 26.480469 26.484375zm0 0" fill="#345a84"/><path d="m282.484375 485.515625c0 14.628906-11.859375 26.484375-26.484375 26.484375s-26.484375-11.855469-26.484375-26.484375c0-14.625 11.859375-26.480469 26.484375-26.480469s26.484375 11.855469 26.484375 26.480469zm0 0" fill="#345a84"/><path d="m317.792969 256c0 34.128906-27.664063 61.792969-61.792969 61.792969s-61.792969-27.664063-61.792969-61.792969 27.664063-61.792969 61.792969-61.792969 61.792969 27.664063 61.792969 61.792969zm0 0" fill="#d1e3ee"/><path d="m256 326.621094c-38.984375-.042969-70.578125-31.636719-70.621094-70.621094h17.65625c.027344 29.238281 23.726563 52.9375 52.964844 52.964844zm0 0" fill="#88d0ef"/><path d="m326.621094 256h-17.65625c-.027344-29.238281-23.726563-52.9375-52.964844-52.964844v-17.65625c38.984375.042969 70.578125 31.636719 70.621094 70.621094zm0 0" fill="#88d0ef"/><path d="m256 256h17.65625v17.65625h-17.65625zm0 0" fill="#345a84"/><path d="m238.34375 238.34375h17.65625v17.65625h-17.65625zm0 0" fill="#345a84"/></svg>