<svg height="511pt" viewBox="-25 1 511 511.99998" width="511pt" xmlns="http://www.w3.org/2000/svg"><path d="m366.292969 405.058594c25.976562-25.882813 40.746093-60.933594 41.136719-97.597656 0-84.90625-80.96875-153.730469-180.855469-153.730469-23.558594-.046875-46.949219 3.910156-69.179688 11.699219-9.214843-18.261719-27.925781-29.78125-48.378906-29.785157v55.160157c-10.480469 7.617187-20.050781 16.417968-28.511719 26.226562h-80.003906v86.3125c.023438 38.1875 28.230469 70.5 66.066406 75.671875 6.9375 11.0625 15.230469 21.210937 24.6875 30.210937l-51.617187 51.617188h51.15625v51.15625l63.597656-63.597656c48.714844 17.875 102.339844 16.984375 150.429687-2.507813l66.105469 66.105469v-51.15625h51.15625zm0 0" fill="#ee8eb4"/><path d="m371.257812 153.730469c.039063-34.960938-28.273437-63.332031-63.230468-63.367188-34.960938-.039062-63.332032 28.273438-63.371094 63.234375-.011719 14.324219 4.832031 28.234375 13.746094 39.449219 20.121094 3.933594 39.210937 11.988281 56.066406 23.660156 32.273438-3.339843 56.796875-30.535156 56.789062-62.976562zm0 0" fill="#ffd884"/><path d="m452.644531 45.214844c0 24.972656-20.242187 45.214844-45.214843 45.214844-24.96875 0-45.214844-20.242188-45.214844-45.214844s20.246094-45.214844 45.214844-45.214844c24.972656 0 45.214843 20.242188 45.214843 45.214844zm0 0" fill="#ffd884"/><path d="m416.472656 307.457031h-36.171875v-18.085937h36.171875c14.984375 0 27.128906-12.144532 27.128906-27.128906 0-14.980469-12.144531-27.128907-27.128906-27.128907v-18.082031c24.972656 0 45.214844 20.242188 45.214844 45.214844 0 24.96875-20.242188 45.210937-45.214844 45.210937zm0 0" fill="#dd527c"/><path d="m181.359375 253.199219h-18.085937c0-9.988281-8.097657-18.085938-18.085938-18.085938-9.992188 0-18.089844 8.097657-18.089844 18.085938h-18.085937c0-19.976563 16.195312-36.167969 36.171875-36.167969 19.976562 0 36.175781 16.191406 36.175781 36.167969zm0 0" fill="#dd527c"/><path d="m36.671875 253.199219c9.988281 0 18.085937 8.097656 18.085937 18.089843 0 9.988282-8.097656 18.085938-18.085937 18.085938zm0 0" fill="#dd527c"/><path d="m190.746094 156.769531c.804687-.136719 1.644531-.191406 2.457031-.320312-.8125.136719-1.652344.183593-2.457031.320312zm0 0" fill="#dd95c1"/><path d="m407.429688 307.457031c-.027344 4.949219-.328126 9.890625-.902344 14.804688.574218-4.914063.875-9.855469.902344-14.804688zm0 0" fill="#dd95c1"/><path d="m208.339844 154.515625c5.992187-.523437 12.070312-.785156 18.234375-.785156-6.164063 0-12.238281.261719-18.234375.785156zm0 0" fill="#dd95c1"/><path d="m207.753906 460.355469c-1.292968-.117188-2.539062-.359375-3.832031-.503907 1.292969.144532 2.539063.433594 3.832031.503907zm0 0" fill="#dd95c1"/><path d="m402.621094 342.203125c-.777344 2.835937-1.601563 5.667969-2.558594 8.445313.957031-2.785157 1.78125-5.609376 2.558594-8.445313zm0 0" fill="#dd95c1"/><path d="m405.804688 327.054688c-.488282 3.238281-1.015626 6.457031-1.730469 9.621093.714843-3.164062 1.238281-6.382812 1.730469-9.621093zm0 0" fill="#dd95c1"/><path d="m83.757812 416.722656-44.121093 44.121094h51.15625v51.15625l51.644531-51.644531zm0 0" fill="#9b1e5a"/><g fill="#dd95c1"><path d="m73.648438 389.277344c-1.167969-1.570313-2.308594-3.15625-3.402344-4.765625 1.09375 1.621093 2.234375 3.195312 3.402344 4.765625zm0 0"/><path d="m171.65625 453.953125c-.90625-.242187-1.710938-.558594-2.585938-.804687.875.21875 1.707032.535156 2.585938.804687zm0 0"/><path d="m93.28125 203.816406c.371094-.351562.730469-.695312 1.113281-1.039062-.382812.34375-.753906.6875-1.113281 1.039062zm0 0"/><path d="m243.011719 460.484375c-5.425781.414063-10.851563.703125-16.4375.703125 5.550781 0 11.023437-.28125 16.4375-.703125zm0 0"/><path d="m189.40625 457.90625c-1.128906-.199219-2.214844-.507812-3.347656-.734375 1.132812.226563 2.21875.535156 3.347656.734375zm0 0"/><path d="m287.902344 451.929688-2.027344.632812zm0 0"/><path d="m397.960938 356.289062c-1.046876 2.660157-2.175782 5.277344-3.378907 7.859376 1.210938-2.597657 2.339844-5.21875 3.378907-7.859376zm0 0"/><path d="m276.308594 455.15625c-3.382813.824219-6.800782 1.582031-10.265625 2.242188 3.480469-.667969 6.902343-1.414063 10.265625-2.242188zm0 0"/><path d="m384.535156 382.226562c-1.710937 2.601563-3.617187 5.117188-5.425781 7.621094 1.851563-2.503906 3.714844-5.019531 5.425781-7.621094zm0 0"/><path d="m375.914062 394.125c-3.019531 3.753906-6.203124 7.398438-9.59375 10.90625 3.390626-3.527344 6.574219-7.144531 9.59375-10.90625zm0 0"/><path d="m260.03125 458.476562c-4.523438.722657-9.105469 1.355469-13.753906 1.808594 4.601562-.480468 9.179687-1.09375 13.753906-1.808594zm0 0"/></g><path d="m320.113281 461.1875 50.8125 50.8125v-51.15625h51.15625l-46.167969-46.171875zm0 0" fill="#9b1e5a"/><path d="m391.914062 369.601562c-1.339843 2.558594-2.785156 5.054688-4.269531 7.542969 1.484375-2.488281 2.929688-4.984375 4.269531-7.542969zm0 0" fill="#dd95c1"/><path d="m328.929688 241.238281c-26.746094-27.730469-63.839844-43.054687-102.355469-42.292969v-18.085937c43.578125-.761719 85.5 16.679687 115.675781 48.132813zm0 0" fill="#dd527c"/></svg>