<svg height="512pt" viewBox="0 -79 512.00002 512" width="512pt" xmlns="http://www.w3.org/2000/svg"><path d="m0 0h512v353.101562h-512zm0 0" fill="#88d0ef"/><path d="m0 0h512v70.621094h-512zm0 0" fill="#d1e3ee"/><g fill="#345a84"><path d="m35.308594 26.484375h17.65625v17.652344h-17.65625zm0 0"/><path d="m70.621094 26.484375h17.65625v17.652344h-17.65625zm0 0"/><path d="m105.929688 26.484375h17.65625v17.652344h-17.65625zm0 0"/></g><path d="m262.25 303.546875-109.648438-59.808594v-63.753906l109.648438-59.804687zm0 0" fill="#d2d7d6"/><path d="m256 105.929688h35.308594v211.863281h-35.308594zm0 0" fill="#a9bfd1"/><path d="m88.277344 229.515625h35.308594v88.277344h-35.308594zm0 0" fill="#a9bfd1"/><path d="m35.308594 185.378906h44.140625v52.964844h-44.140625zm0 0" fill="#345a84"/><path d="m338.925781 277.132812-12.492187-12.492187c30.980468-31.046875 30.980468-81.308594 0-112.355469l12.492187-12.484375c37.863281 37.949219 37.863281 99.382813 0 137.332031zm0 0" fill="#ffd884"/><path d="m370.132812 308.339844-12.484374-12.484375c48.265624-48.261719 48.269531-126.511719.011718-174.777344-.003906-.003906-.007812-.003906-.011718-.007813l12.484374-12.492187c55.15625 55.160156 55.15625 144.585937 0 199.742187zm0 0" fill="#ffd884"/><path d="m401.347656 339.554688-12.484375-12.484376c65.386719-65.550781 65.386719-171.652343 0-237.207031l12.484375-12.480469c72.269532 72.449219 72.269532 189.722657 0 262.171876zm0 0" fill="#ffd884"/><path d="m70.621094 176.550781h88.277344v70.621094h-88.277344zm0 0" fill="#dd1c4b"/></svg>