<svg height="511pt" viewBox="-36 1 511 511.99994" width="511pt" xmlns="http://www.w3.org/2000/svg"><path d="m.5 512 18.285156-402.285156h365.714844v402.285156zm0 0" fill="#88d0ef"/><path d="m384.5 512-.265625-402.285156h36.835937l18.285157 402.285156zm0 0" fill="#345a84"/><path d="m275.417969 240.867188 24.117187-24.117188-12.929687-12.929688-26.136719 26.140626c-17.726562-11.15625-37.933594-17.757813-58.824219-19.21875v-37.027344h18.285157v-18.285156h-54.859376v18.285156h18.285157v37.027344c-20.890625 1.457031-41.097657 8.050781-58.824219 19.199218l-26.136719-26.136718-12.929687 12.925781 24.117187 24.121093c-53.855469 45.792969-60.386719 126.574219-14.59375 180.429688s126.574219 60.390625 180.429688 14.597656c53.855469-45.796875 60.390625-126.578125 14.59375-180.433594-4.460938-5.25-9.34375-10.128906-14.59375-14.59375zm0 0" fill="#ffd884"/><path d="m274.785156 146.285156v-45.714844c0-35.34375-28.652344-64-64-64-35.34375 0-64 28.65625-64 64v45.714844h-36.570312v-45.714844c0-55.542968 45.027344-100.570312 100.570312-100.570312 55.542969 0 100.570313 45.027344 100.570313 100.570312v45.714844zm0 0" fill="#d1e3ee"/><path d="m192.5 246.855469c-50.496094 0-91.429688 40.9375-91.429688 91.429687 0 50.496094 40.933594 91.429688 91.429688 91.429688 50.492188 0 91.429688-40.933594 91.429688-91.429688h-91.429688zm0 0" fill="#ee8eb4"/></svg>