<svg height="512pt" viewBox="-44 0 512 512.00004" width="512pt" xmlns="http://www.w3.org/2000/svg"><path d="m0 35.308594h423.722656v476.691406h-423.722656zm0 0" fill="#77604f"/><path d="m148.894531 0h125.933594c13.980469 0 25.308594 11.332031 25.308594 25.308594v20.003906c0 13.976562-11.328125 25.308594-25.308594 25.308594h-125.933594c-13.976562 0-25.308593-11.332032-25.308593-25.308594v-20.003906c0-13.976563 11.332031-25.308594 25.308593-25.308594zm0 0" fill="#d1e3ee"/><path d="m44.136719 70.621094h335.449219v388.414062h-335.449219zm0 0" fill="#eef1eb"/><path d="m194.207031 176.550781c0 24.378907-19.761719 44.140625-44.136719 44.140625-24.378906 0-44.140624-19.761718-44.140624-44.140625 0-24.375 19.761718-44.136719 44.140624-44.136719 24.375 0 44.136719 19.761719 44.136719 44.136719zm0 0" fill="#ffd884"/><path d="m150.070312 132.414062v44.136719h44.136719c0-24.375-19.761719-44.136719-44.136719-44.136719zm0 0" fill="#dd1c4b"/><g fill="#a9bfd1"><path d="m105.929688 264.828125h79.449218v17.65625h-79.449218zm0 0"/><path d="m105.929688 300.136719h79.449218v17.65625h-79.449218zm0 0"/><path d="m105.929688 335.449219h79.449218v17.65625h-79.449218zm0 0"/><path d="m273.65625 105.929688h26.480469v17.65625h-26.480469zm0 0"/><path d="m273.65625 141.242188h52.964844v17.65625h-52.964844zm0 0"/></g><path d="m256 229.515625h35.308594v35.3125h-35.308594zm0 0" fill="#345a84"/><path d="m256 300.136719h35.308594v35.3125h-35.308594zm0 0" fill="#345a84"/><path d="m256 370.757812h35.308594v35.3125h-35.308594zm0 0" fill="#345a84"/><path d="m317.792969 238.34375h35.308593v17.65625h-35.308593zm0 0" fill="#a9bfd1"/><path d="m317.792969 308.964844h35.308593v17.65625h-35.308593zm0 0" fill="#a9bfd1"/><path d="m317.792969 379.585938h35.308593v17.65625h-35.308593zm0 0" fill="#a9bfd1"/></svg>