<svg height="512pt" viewBox="0 -57 512.00065 512" width="512pt" xmlns="http://www.w3.org/2000/svg"><path d="m0 0h512v353.105469h-512zm0 0" fill="#345a84"/><path d="m0 0h512v70.621094h-512zm0 0" fill="#a9bfd1"/><path d="m423.722656 105.929688-35.308594 61.792968v229.519532h70.621094v-229.519532zm0 0" fill="#e5b78f"/><path d="m388.414062 167.722656h70.621094v229.519532h-70.621094zm0 0" fill="#ffd884"/><path d="m414.898438 167.722656h17.652343v229.519532h-17.652343zm0 0" fill="#a55f40"/><path d="m441.378906 0h70.621094v70.621094h-70.621094zm0 0" fill="#ee8eb4"/><path d="m52.964844 123.585938h282.484375v88.277343h-282.484375zm0 0" fill="#88d0ef"/><g fill="#eef1eb"><path d="m105.929688 247.171875h238.347656v17.65625h-238.347656zm0 0"/><path d="m52.964844 300.136719h291.3125v17.65625h-291.3125zm0 0"/><path d="m70.621094 247.171875h17.65625v17.65625h-17.65625zm0 0"/><path d="m467.863281 26.484375h17.65625v17.652344h-17.65625zm0 0"/></g></svg>