<svg height="512pt" viewBox="-4 0 512 512.00001" width="512pt" xmlns="http://www.w3.org/2000/svg"><path d="m273.65625 432.550781h176.550781v79.449219h-176.550781zm0 0" fill="#e5b78f"/><path d="m262.363281 0h146.167969c23.015625 0 41.675781 18.660156 41.675781 41.675781v358.027344c0 23.019531-18.660156 41.675781-41.675781 41.675781h-146.167969c-23.015625 0-41.671875-18.65625-41.671875-41.675781v-358.027344c0-23.015625 18.65625-41.675781 41.671875-41.675781zm0 0" fill="#d1e3ee"/><path d="m220.691406 52.964844h229.515625v317.792968h-229.515625zm0 0" fill="#345a84"/><g fill="#e5b78f"><path d="m397.242188 476.691406h52.964843l52.964844-61.792968v-211.863282h-52.964844v123.585938l-52.964843 50.925781zm0 0"/><path d="m141.242188 326.613281 35.3125-35.308593 79.449218 79.445312-35.3125 35.3125zm0 0"/><path d="m141.234375 255.996094 35.3125-35.3125 79.449219 79.449218-35.3125 35.3125zm0 0"/></g><path d="m26.703125 88.277344h211.421875c14.746094 0 26.703125 11.953125 26.703125 26.703125v123.144531c0 14.746094-11.957031 26.703125-26.703125 26.703125h-211.421875c-14.746094 0-26.703125-11.957031-26.703125-26.703125v-123.144531c0-14.75 11.957031-26.703125 26.703125-26.703125zm0 0" fill="#88d0ef"/><path d="m0 123.585938h264.828125v35.3125h-264.828125zm0 0" fill="#a55f40"/><path d="m79.449219 211.863281c0 9.75-7.90625 17.652344-17.65625 17.652344s-17.65625-7.902344-17.65625-17.652344 7.90625-17.65625 17.65625-17.65625 17.65625 7.90625 17.65625 17.65625zm0 0" fill="#ffd884"/><path d="m114.757812 211.863281c0 9.75-7.902343 17.652344-17.65625 17.652344-9.75 0-17.652343-7.902344-17.652343-17.652344s7.902343-17.65625 17.652343-17.65625c9.753907 0 17.65625 7.90625 17.65625 17.65625zm0 0" fill="#ffd884"/></svg>