<svg height="512.00066pt" viewBox="0 0 512.00066 512.00066" width="512.00066pt" xmlns="http://www.w3.org/2000/svg"><path d="m407.289062 388.414062h68.183594c15.296875 0 27.699219 12.402344 27.699219 27.703126v95.882812h-123.585937v-95.886719c0-15.296875 12.402343-27.699219 27.703124-27.699219zm0 0" fill="#dd1c4b"/><path d="m70.621094 264.828125c-19.5 0-35.308594 15.808594-35.308594 35.308594v52.964843c0 19.503907 15.808594 35.3125 35.308594 35.3125s35.308594-15.808593 35.308594-35.3125v-52.964843c0-19.5-15.808594-35.308594-35.308594-35.308594zm0 0" fill="#4fb86a"/><path d="m35.308594 335.449219h-17.652344c-9.753906 0-17.65625-7.90625-17.65625-17.65625s7.902344-17.65625 17.65625-17.65625h17.65625v35.3125zm0 0" fill="#1f8b94"/><path d="m203.035156 0h123.585938l17.65625 17.65625v88.273438h-141.242188zm0 0" fill="#e5b78f"/><path d="m512 388.414062h-141.242188v-70.621093c0-39.003907 31.617188-70.621094 70.621094-70.621094s70.621094 31.617187 70.621094 70.621094zm0 0" fill="#a55f40"/><path d="m221.90625 388.414062h68.1875c15.296875 0 27.699219 12.402344 27.699219 27.703126v95.882812h-123.585938v-95.886719c0-15.296875 12.402344-27.699219 27.699219-27.699219zm0 0" fill="#d1e3ee"/><g fill="#e5b78f"><path d="m282.484375 459.035156h35.308594v52.964844h-35.308594zm0 0"/><path d="m194.207031 459.035156h35.308594v52.964844h-35.308594zm0 0"/><path d="m467.863281 459.035156h35.308594v52.964844h-35.308594zm0 0"/><path d="m379.585938 459.035156h35.308593v52.964844h-35.308593zm0 0"/><path d="m291.308594 300.136719v52.964843c0 19.503907-15.808594 35.3125-35.308594 35.3125s-35.308594-15.808593-35.308594-35.3125v-52.964843zm0 0"/></g><path d="m220.691406 264.828125h97.101563v17.859375c0 14.511719-11.765625 26.277344-26.277344 26.277344h-70.824219zm0 0" fill="#ffd884"/><path d="m36.527344 388.414062h68.183594c15.300781 0 27.703124 12.402344 27.703124 27.703126v95.882812h-123.585937v-95.886719c0-15.296875 12.402344-27.699219 27.699219-27.699219zm0 0" fill="#345a84"/><path d="m97.105469 459.035156h35.308593v52.964844h-35.308593zm0 0" fill="#e5b78f"/><path d="m8.828125 459.035156h35.308594v52.964844h-35.308594zm0 0" fill="#e5b78f"/><path d="m105.929688 300.136719v52.964843c0 19.503907-15.808594 35.3125-35.308594 35.3125s-35.308594-15.808593-35.308594-35.3125v-52.964843zm0 0" fill="#e5b78f"/><path d="m247.171875 388.414062h17.65625v61.792969h-17.65625zm0 0" fill="#88d0ef"/><path d="m203.035156 88.277344h35.308594v88.273437c0 9.75-7.902344 17.65625-17.652344 17.65625-9.753906 0-17.65625-7.90625-17.65625-17.65625zm0 0" fill="#fae9c4"/><path d="m238.34375 88.277344h35.3125v52.964844h-35.3125zm0 0" fill="#fae9c4"/><path d="m238.34375 88.277344h17.65625v52.964844h-17.65625zm0 0" fill="#e5b78f"/><path d="m273.65625 88.277344h35.308594v52.964844h-35.308594zm0 0" fill="#fae9c4"/><path d="m273.65625 88.277344h17.652344v52.964844h-17.652344zm0 0" fill="#e5b78f"/><path d="m308.964844 88.277344h35.3125v52.964844h-35.3125zm0 0" fill="#fae9c4"/><path d="m308.964844 88.277344h17.65625v52.964844h-17.65625zm0 0" fill="#e5b78f"/><path d="m194.207031 0-26.484375 17.65625v61.792969c0 9.75 7.90625 17.65625 17.65625 17.65625s17.65625-7.90625 17.65625-17.65625v-26.484375h52.964844l26.484375-26.480469v-26.484375zm0 0" fill="#fae9c4"/><path d="m406.070312 317.792969v35.308593c.03125 16.066407 10.921876 30.074219 26.480469 34.066407v18.902343c0 4.875 3.953125 8.824219 8.828125 8.824219s8.828125-3.949219 8.828125-8.824219v-18.902343c15.558594-3.992188 26.449219-18 26.480469-34.066407v-35.308593zm0 0" fill="#e5b78f"/></svg>