<svg height="512pt" viewBox="0 -62 512.00067 512" width="512pt" xmlns="http://www.w3.org/2000/svg"><path d="m229.074219 123.585938h53.851562c19.257813 0 34.867188 15.613281 34.867188 34.871093v229.957031h-123.585938v-229.957031c0-19.257812 15.609375-34.871093 34.867188-34.871093zm0 0" fill="#fae9c4"/><path d="m256 17.65625c24.378906 0 44.136719 19.761719 44.136719 44.136719v17.65625c0 24.375-19.757813 44.136719-44.136719 44.136719-24.375 0-44.136719-19.761719-44.136719-44.136719v-17.65625c0-24.375 19.761719-44.136719 44.136719-44.136719zm0 0" fill="#e5b78f"/><path d="m423.28125 105.929688h53.847656c19.257813 0 34.871094 15.613281 34.871094 34.871093v229.957031h-123.585938v-229.957031c0-19.257812 15.609376-34.871093 34.867188-34.871093zm0 0" fill="#d2d7d6"/><path d="m450.207031 0c24.375 0 44.136719 19.761719 44.136719 44.136719v17.65625c0 24.378906-19.761719 44.140625-44.136719 44.140625s-44.136719-19.761719-44.136719-44.140625v-17.65625c0-24.375 19.761719-44.136719 44.136719-44.136719zm0 0" fill="#e5b78f"/><path d="m34.871094 105.929688h53.847656c19.257812 0 34.867188 15.613281 34.867188 34.871093v229.957031h-123.585938v-229.957031c0-19.257812 15.613281-34.871093 34.871094-34.871093zm0 0" fill="#88d0ef"/><path d="m61.792969 0c24.375 0 44.136719 19.761719 44.136719 44.136719v17.65625c0 24.378906-19.761719 44.140625-44.136719 44.140625s-44.136719-19.761719-44.136719-44.140625v-17.65625c0-24.375 19.761719-44.136719 44.136719-44.136719zm0 0" fill="#e5b78f"/><path d="m0 291.3125h123.585938v79.445312h-123.585938zm0 0" fill="#345a84"/><path d="m0 291.3125h123.585938v35.308594h-123.585938zm0 0" fill="#77604f"/><path d="m388.414062 291.3125h123.585938v79.445312h-123.585938zm0 0" fill="#345a84"/><path d="m388.414062 291.3125h123.585938v35.308594h-123.585938zm0 0" fill="#a9bfd1"/><path d="m194.207031 317.792969h123.585938v70.621093h-123.585938zm0 0" fill="#345a84"/><path d="m229.515625 158.898438h35.3125v123.585937h-35.3125zm0 0" fill="#eef1eb"/><path d="m44.144531 167.726562 26.484375-26.488281 123.585938 123.585938-26.484375 26.484375zm0 0" fill="#88d0ef"/><path d="m317.792969 264.824219 123.585937-123.585938 26.484375 26.484375-123.585937 123.585938zm0 0" fill="#d2d7d6"/><g fill="#e5b78f"><path d="m167.722656 291.3125 44.140625 44.136719 35.308594-35.308594-35.308594-35.3125h-17.65625zm0 0"/><path d="m344.277344 291.3125-44.140625 44.136719-35.308594-35.308594 35.308594-35.3125h17.65625zm0 0"/><path d="m229.515625 282.484375v70.621094h52.96875v-52.964844l-17.65625-17.65625zm0 0"/></g></svg>