<svg height="511pt" viewBox="1 -8 511.99998 511" width="511pt" xmlns="http://www.w3.org/2000/svg"><path d="m220.425781 375.96875h71.160157c22.761718.003906 41.214843 18.457031 41.214843 41.222656v78.242188h-153.601562v-78.242188c0-22.765625 18.457031-41.222656 41.226562-41.222656zm0 0" fill="#a9bfd1"/><path d="m247.46875 461.300781h34.132812v34.132813h-34.132812zm0 0" fill="#e5b78f"/><path d="m110.933594 358.898438h34.132812v34.132812h-34.132812zm0 0" fill="#e5b78f"/><path d="m110.933594 393.035156v59.730469h76.800781v-34.132813h-42.667969v-25.597656zm0 0" fill="#a9bfd1"/><path d="m225.28125 367.433594 30.71875 51.199218 30.71875-51.199218zm0 0" fill="#d1e3ee"/><path d="m221.867188 77.300781h68.265624v247.464844h-68.265624zm0 0" fill="#88d0ef"/><path d="m229.769531 256.5h52.460938c13.789062 0 24.96875 11.179688 24.96875 24.96875v69.53125c0 13.789062-11.179688 24.96875-24.96875 24.96875h-52.460938c-13.789062 0-24.96875-11.179688-24.96875-24.96875v-69.53125c0-13.789062 11.179688-24.96875 24.96875-24.96875zm0 0" fill="#e5b78f"/><path d="m230.398438 307.699219h17.070312v17.066406h-17.070312zm0 0" fill="#345a84"/><path d="m264.53125 307.699219h17.070312v17.066406h-17.070312zm0 0" fill="#345a84"/><path d="m8.53125 137.035156h68.269531v145.066406h-68.269531zm0 0" fill="#88d0ef"/><path d="m110.933594 119.96875h59.734375v162.132812h-59.734375zm0 0" fill="#88d0ef"/><path d="m341.332031 94.367188h59.734375v187.734374h-59.734375zm0 0" fill="#88d0ef"/><path d="m435.199219 111.433594h68.269531v170.667968h-68.269531zm0 0" fill="#88d0ef"/><path d="m221.867188 43.167969v-42.667969l34.132812 17.066406 34.132812-17.066406v42.667969zm0 0" fill="#ffd884"/><g fill="#345a84"><path d="m0 299.167969h17.066406v17.066406h-17.066406zm0 0"/><path d="m68.265625 299.167969h17.066406v17.066406h-17.066406zm0 0"/><path d="m0 333.300781h17.066406v17.066407h-17.066406zm0 0"/><path d="m68.265625 333.300781h17.066406v17.066407h-17.066406zm0 0"/><path d="m0 367.433594h17.066406v17.066406h-17.066406zm0 0"/><path d="m102.398438 299.167969h17.070312v17.066406h-17.070312zm0 0"/><path d="m392.53125 299.167969h17.070312v17.066406h-17.070312zm0 0"/><path d="m392.53125 333.300781h17.070312v17.066407h-17.070312zm0 0"/><path d="m332.800781 299.167969h17.066407v17.066406h-17.066407zm0 0"/><path d="m162.132812 299.167969h17.066407v17.066406h-17.066407zm0 0"/><path d="m426.667969 299.167969h17.066406v17.066406h-17.066406zm0 0"/><path d="m426.667969 333.300781h17.066406v17.066407h-17.066406zm0 0"/><path d="m494.933594 299.167969h17.066406v17.066406h-17.066406zm0 0"/><path d="m494.933594 333.300781h17.066406v17.066407h-17.066406zm0 0"/><path d="m494.933594 367.433594h17.066406v17.066406h-17.066406zm0 0"/></g><path d="m290.492188 213.832031h-9.796876c-13.636718 0-24.695312 11.058594-24.695312 24.695313v1c0-14.191406-11.503906-25.695313-25.691406-25.695313h-8.800782c-18.652343 0-33.773437 15.125-33.773437 33.777344v34.492187h136.53125v-34.492187c0-18.65625-15.121094-33.777344-33.773437-33.777344zm0 0" fill="#77604f"/></svg>