<svg height="512pt" viewBox="0 -18 512.0003 512" width="512pt" xmlns="http://www.w3.org/2000/svg"><path d="m361.933594 35.308594c-82.882813 0-150.070313 67.1875-150.070313 150.070312v17.65625l-30.199219 22.652344c-3.300781 2.464844-5.605468 6.039062-6.496093 10.0625l-11.601563 52.214844c-2.070312 9.296875 3.789063 18.515625 13.085938 20.589844 1.234375.273437 2.492187.410156 3.757812.410156h31.453125v88.699218c0 14.394532 11.667969 26.058594 26.058594 26.058594 24.027344-.027344 47.9375-3.382812 71.042969-9.972656v62.941406h141.242187v-150.070312c39.222657-33.621094 61.796875-82.699219 61.792969-134.355469v-6.886719c0-82.882812-67.1875-150.070312-150.066406-150.070312zm0 0" fill="#e5b78f"/><path d="m258.578125 206.113281-65.640625-37.886719 20.523438-28.929687 61.476562 35.496094zm0 0" fill="#a9bfd1"/><path d="m287.914062 161.890625c-24.203124 2.914063-41.460937 24.894531-38.546874 49.097656.503906 4.15625 1.589843 8.21875 3.234374 12.066407l48.234376-12.957032zm0 0" fill="#88d0ef"/><path d="m341.523438 129.03125c-10.863282-10.722656-10.972657-28.222656-.246094-39.085938 2.933594-2.96875 6.5-5.238281 10.433594-6.632812 46.253906-15.410156 96.242187 9.59375 111.652343 55.847656 6.035157 18.113282 6.035157 37.699219 0 55.8125-5.09375 14.386719-20.886719 21.917969-35.269531 16.824219-3.9375-1.394531-7.507812-3.664063-10.441406-6.636719zm0 0" fill="#ffd884"/><path d="m203.503906 184.515625-56.59375-32.671875 27.328125-45.382812 55.75 32.183593zm0 0" fill="#d1e3ee"/><path d="m148.800781 173.320312-121.070312-69.898437 44.867187-76.03125 120.339844 69.480469zm0 0" fill="#d2d7d6"/><path d="m0 107.027344 61.792969-107.027344 30.578125 17.65625-61.792969 107.023438zm0 0" fill="#345a84"/></svg>