<svg height="512.00066pt" viewBox="0 0 512.00066 512.00066" width="512.00066pt" xmlns="http://www.w3.org/2000/svg"><path d="m220.691406 185.378906v44.136719l-40.898437 81.796875c-4.121094 8.238281-.785157 18.253906 7.453125 22.375 2.316406 1.160156 4.871094 1.761719 7.464844 1.761719h25.980468v97.527343c0 14.390626 11.664063 26.058594 26.058594 26.058594 20.96875-.019531 41.859375-2.574218 62.214844-7.609375v60.574219h141.242187v-150.070312c29.15625-24.992188 49.390625-58.789063 57.652344-96.289063 2.75-12.503906 4.136719-25.265625 4.140625-38.066406v-42.195313zm0 0" fill="#e5b78f"/><path d="m282.484375 158.898438v-123.660157c0-19.460937 15.777344-35.238281 35.238281-35.238281h141.3125v158.898438zm0 0" fill="#eef1eb"/><path d="m459.035156 0h16.886719c19.925781 0 36.078125 16.152344 36.078125 36.078125v34.542969h-52.964844zm0 0" fill="#d2d7d6"/><path d="m308.964844 97.105469h123.585937v17.652343h-123.585937zm0 0" fill="#345a84"/><path d="m308.964844 44.136719h123.585937v17.65625h-123.585937zm0 0" fill="#345a84"/><path d="m123.585938 220.691406c-9.75 0-17.65625 7.902344-17.65625 17.652344 0-9.75-7.902344-17.652344-17.652344-17.652344-9.753906 0-17.65625 7.902344-17.65625 17.652344 0-9.75-7.90625-17.652344-17.65625-17.652344s-17.65625 7.902344-17.65625 17.652344c0-9.75-7.902344-17.652344-17.652344-17.652344-9.753906 0-17.65625 7.902344-17.65625 17.652344v229.519531l17.65625 17.65625v26.480469h105.929688v-26.480469l17.65625-17.65625v-229.519531c0-9.75-7.90625-17.652344-17.65625-17.652344zm0 0" fill="#a55f40"/><path d="m198.621094 384c-7.316406-7.308594-19.167969-7.308594-26.484375 0l-30.894531 30.898438v-17.65625h-44.140626l-44.136718 44.136718v70.621094h70.621094v-26.480469l75.035156-75.035156c7.308594-7.316406 7.308594-19.167969 0-26.484375zm0 0" fill="#e5b78f"/></svg>