<svg height="512pt" viewBox="0 -119 512.00002 512" width="512pt" xmlns="http://www.w3.org/2000/svg"><path d="m0 0h512v123.585938h-512zm0 0" fill="#88d0ef"/><path d="m459.035156 167.722656v-61.792968c0-9.75-7.90625-17.652344-17.65625-17.652344s-17.65625 7.902344-17.65625 17.652344v97.105468h-35.308594v52.964844l17.65625 17.65625h97.101563l8.828125-105.929688h-52.964844zm0 0" fill="#e5b78f"/><g fill="#345a84"><path d="m113.453125 68.933594-17.65625-29.34375c-2.863281-4.175782-8.574219-5.242188-12.75-2.378906-.933594.640624-1.742187 1.449218-2.382813 2.378906l-17.652343 29.34375-14.320313-33.625h-19.199218l24.1875 56.445312c1.921874 4.480469 7.113281 6.554688 11.59375 4.632813 1.703124-.730469 3.128906-1.976563 4.085937-3.566407l18.914063-31.523437 18.917968 31.523437c1.597656 2.65625 4.46875 4.28125 7.566406 4.285157h.589844c3.304688-.21875 6.207032-2.261719 7.523438-5.296875l24.1875-56.496094h-19.199219zm0 0"/><path d="m254.695312 68.933594-17.65625-29.34375c-2.863281-4.175782-8.574218-5.242188-12.75-2.378906-.933593.640624-1.742187 1.449218-2.382812 2.378906l-17.652344 29.34375-14.320312-33.625h-19.199219l24.1875 56.445312c1.921875 4.480469 7.113281 6.554688 11.59375 4.632813 1.699219-.730469 3.128906-1.976563 4.082031-3.566407l18.917969-31.523437 18.917969 31.523437c1.597656 2.65625 4.464844 4.28125 7.566406 4.285157h.589844c3.304687-.21875 6.207031-2.261719 7.523437-5.296875l24.1875-56.496094h-19.199219zm0 0"/><path d="m395.933594 68.933594-17.609375-29.34375c-2.863281-4.175782-8.574219-5.242188-12.75-2.378906-.933594.640624-1.742188 1.449218-2.378907 2.378906l-17.613281 29.34375-14.40625-33.625h-19.199219l24.1875 56.445312c1.921876 4.480469 7.113282 6.554688 11.59375 4.632813 1.699219-.730469 3.128907-1.976563 4.082032-3.566407l18.917968-31.523437 18.917969 31.523437c1.597657 2.65625 4.464844 4.28125 7.566407 4.285157h.589843c3.300781-.21875 6.207031-2.261719 7.523438-5.296875l24.1875-56.496094h-19.203125zm0 0"/></g></svg>