<svg height="512pt" viewBox="-64 0 512 512" width="512pt" xmlns="http://www.w3.org/2000/svg"><path d="m300.734375 203.667969c25.816406-23.230469 40.597656-56.445313 40.597656-91.175781v-85.824219c0-8.832031-7.167969-16-16-16h-266.664062c-8.832031 0-16 7.167969-16 16v85.824219c0 34.730468 14.78125 67.964843 40.597656 91.175781l36.117187 32.492187c5.695313 5.140625 8.832032 12.179688 8.832032 19.839844s-3.136719 14.699219-8.832032 19.820312l-36.117187 32.488282c-25.816406 23.253906-40.597656 56.46875-40.597656 91.199218v85.824219c0 8.832031 7.167969 16 16 16h266.664062c8.832031 0 16-7.167969 16-16v-85.824219c0-34.730468-14.78125-67.964843-40.597656-91.175781l-36.117187-32.492187c-5.695313-5.140625-8.832032-12.179688-8.832032-19.839844s3.136719-14.699219 8.832032-19.820312zm0 0" fill="#eceff1"/><path d="m106.667969 16v94.316406c0 15.679688 6.101562 30.398438 17.195312 41.492188l56.828125 56.832031c3.117188 3.136719 7.210938 4.691406 11.308594 4.691406s8.191406-1.554687 11.308594-4.691406l56.828125-56.832031c11.09375-11.074219 17.195312-25.8125 17.195312-41.492188v-94.316406zm0 0" fill="#ffc107"/><g fill="#607d8b"><path d="m362.667969 42.667969h-341.335938c-11.796875 0-21.332031-9.558594-21.332031-21.335938 0-11.773437 9.535156-21.332031 21.332031-21.332031h341.335938c11.796875 0 21.332031 9.558594 21.332031 21.332031 0 11.777344-9.535156 21.335938-21.332031 21.335938zm0 0"/><path d="m362.667969 512h-341.335938c-11.796875 0-21.332031-9.558594-21.332031-21.332031 0-11.777344 9.535156-21.335938 21.332031-21.335938h341.335938c11.796875 0 21.332031 9.558594 21.332031 21.335938 0 11.773437-9.535156 21.332031-21.332031 21.332031zm0 0"/></g></svg>