<svg height="464pt" viewBox="0 -68 464 464" width="464pt" xmlns="http://www.w3.org/2000/svg"><path d="m32 64h400v232h-400zm0 0" fill="#d6d7d8"/><path d="m416 0h-368c-8.800781 0-16 7.199219-16 16v48h400v-48c0-8.800781-7.199219-16-16-16zm0 0" fill="#4a4a56"/><g fill="#2ab793"><path d="m56 152h96v16h-96zm0 0"/><path d="m56 184h352v16h-352zm0 0"/><path d="m56 216h112v16h-112zm0 0"/><path d="m56 248h352v16h-352zm0 0"/></g><path d="m306.460938 125.777344 11.3125-11.3125 23.757812 23.757812-11.3125 11.3125zm0 0" fill="#ddad6f"/><path d="m64 96h192v32h-192zm0 0" fill="#e9e9e9"/><path d="m0 296v16c0 8.800781 7.199219 16 16 16h432c8.800781 0 16-7.199219 16-16v-16zm0 0" fill="#4a4a56"/><path d="m56 24h16v16h-16zm0 0" fill="#dd5b5b"/><path d="m88 24h16v16h-16zm0 0" fill="#edc17c"/><path d="m120 24h16v16h-16zm0 0" fill="#2ab793"/><path d="m152 24h256v16h-256zm0 0" fill="#878b9b"/><path d="m216 96h40v32h-40zm0 0" fill="#b4b4b5"/><path d="m304 136c-13.601562 0-24-10.398438-24-24s10.398438-24 24-24 24 10.398438 24 24-10.398438 24-24 24zm0-32c-4.800781 0-8 3.199219-8 8s3.199219 8 8 8 8-3.199219 8-8-3.199219-8-8-8zm0 0" fill="#edc17c"/></svg>