<?xml version="1.0" encoding="iso-8859-1"?>
<!-- Generator: Adobe Illustrator 19.0.0, SVG Export Plug-In . SVG Version: 6.00 Build 0)  -->
<svg version="1.1" id="Capa_1" xmlns="http://www.w3.org/2000/svg" xmlns:xlink="http://www.w3.org/1999/xlink" x="0px" y="0px"
	 viewBox="0 0 512 512" style="enable-background:new 0 0 512 512;" xml:space="preserve">
<polygon style="fill:#666666;" points="301,300 226,300 256,512 301,512 "/>
<rect x="211" y="300" style="fill:#7F7F7F;" width="45" height="212"/>
<polygon style="fill:#458FDE;" points="512,255 196,195 256,330 512,330 "/>
<polygon style="fill:#6FAEE8;" points="15,195 75,330 256,330 256,195 "/>
<polygon style="fill:#4A75C3;" points="0,255 0,330 75,330 75,195 "/>
<polygon style="fill:#C42725;" points="512,255 512,0 256,0 196,127.5 256,255 "/>
<rect style="fill:#E24642;" width="256" height="255"/>
<polygon style="fill:#4C4C4C;" points="512,360 256,360 236,375 256,390 512,390 "/>
<rect y="360" style="fill:#595959;" width="256" height="30"/>
<polygon style="fill:#DDEFFB;" points="256,75.25 236,127.5 256,179.75 346.5,127.5 "/>
<polygon style="fill:#FFFFFF;" points="210.75,49.125 210.75,205.875 256,179.75 256,75.25 "/>
<g>
</g>
<g>
</g>
<g>
</g>
<g>
</g>
<g>
</g>
<g>
</g>
<g>
</g>
<g>
</g>
<g>
</g>
<g>
</g>
<g>
</g>
<g>
</g>
<g>
</g>
<g>
</g>
<g>
</g>
</svg>
