<svg height="512pt" viewBox="-32 0 512 512" width="512pt" xmlns="http://www.w3.org/2000/svg" xmlns:xlink="http://www.w3.org/1999/xlink"><linearGradient id="a" gradientUnits="userSpaceOnUse" x1="224" x2="224" y1="0" y2="512"><stop offset="0" stop-color="#2af598"/><stop offset="1" stop-color="#009efd"/></linearGradient><path d="m313 242c-74.4375 0-135 60.5625-135 135s60.5625 135 135 135 135-60.5625 135-135-60.5625-135-135-135zm0 230c-52.382812 0-95-42.617188-95-95s42.617188-95 95-95 95 42.617188 95 95-42.617188 95-95 95zm-146.902344 0h-106.097656c-11.027344 0-20-8.972656-20-20v-352c0-11.027344 8.972656-20 20-20h33v79h200v-79h32c11.027344 0 20 8.972656 20 20v104.941406c13.980469 2.59375 27.390625 6.847656 40 12.5625v-117.503906c0-33.085938-26.914062-60-60-60h-75.425781c-8.257813-23.28125-30.5-40-56.574219-40s-48.316406 16.71875-56.574219 40h-76.425781c-33.085938 0-60 26.914062-60 60v352c0 33.085938 26.914062 60 60 60h141.761719c-13.828125-11.414062-25.871094-24.910156-35.664063-40zm6.902344-392v-20c0-11.027344 8.972656-20 20-20s20 8.972656 20 20v20h40v39h-120v-39zm159 277h34v40h-74v-87h40zm0 0" fill="url(#a)"/></svg>