<?xml version="1.0" encoding="iso-8859-1"?>
<!-- Generator: Adobe Illustrator 19.0.0, SVG Export Plug-In . SVG Version: 6.00 Build 0)  -->
<svg version="1.1" id="Layer_1" xmlns="http://www.w3.org/2000/svg" xmlns:xlink="http://www.w3.org/1999/xlink" x="0px" y="0px"
	 viewBox="0 0 512 512" style="enable-background:new 0 0 512 512;" xml:space="preserve">
<circle style="fill:#006775;" cx="256" cy="256" r="256"/>
<path style="fill:#055661;" d="M499.057,336.529L294.918,132.39c-159.316-70.469-194.861,76.429-141.74,153.436L358.14,490.789
	C424.434,461.901,476.126,405.771,499.057,336.529z"/>
<path style="fill:#00CC96;" d="M284.905,289.725l15.713,25.819l2.269-1.385c2.543-1.554,5.906-0.748,7.452,1.805l55.85,92.479
	c1.543,2.554,0.744,5.899-1.798,7.452l-21.252,12.987c-2.543,1.55-5.913,0.748-7.452-1.805l-55.853-92.486
	c-1.539-2.55-0.748-5.899,1.798-7.449l2.251-1.374l-15.606-25.65c-48.225,24.237-107.754,7.668-136.184-39.295
	c-29.883-49.361-14.095-113.594,35.264-143.477c49.361-29.883,113.594-14.095,143.481,35.263
	c27.905,46.099,15.976,105.168-25.931,137.116L284.905,289.725L284.905,289.725z"/>
<circle style="fill:#055661;" cx="221.46" cy="206.72" r="84.78"/>
<path style="fill:#E84F4F;" d="M303.352,313.899l-19.475,11.865l-2.247,1.374c-2.55,1.554-3.337,4.902-1.802,7.452l55.853,92.486
	c1.539,2.554,4.909,3.348,7.449,1.805l21.255-12.987c2.543-1.554,3.345-4.902,1.802-7.449l-55.853-92.483
	c-1.453-2.395-4.51-3.251-6.984-2.061L303.352,313.899z"/>
<path style="fill:#C94545;" d="M300.614,315.543l2.269-1.385c2.543-1.554,5.909-0.748,7.452,1.805l55.853,92.483
	c1.543,2.55,0.74,5.899-1.802,7.449l-10.627,6.492l-60.784-102.179L300.614,315.543z"/>
<path style="fill:#FBBE00;" d="M231.954,268.192l-58.709-21.676C172.774,246.455,225.588,218.593,231.954,268.192z"/>
<g>
	<path style="fill:#E7A20B;" d="M242.104,267.06l30.332-103.15C275.403,181.64,319.69,259.87,242.104,267.06z"/>
	<path style="fill:#E7A20B;" d="M231.954,268.192l-0.032-0.255l-0.259-1.762l-57.073-20.399l-1.342,0.74
		c-0.892-0.273,20.996,52.473,58.709,21.676H231.954L231.954,268.192z"/>
</g>
<path style="fill:#FBBE00;" d="M242.104,267.06l2.388-0.248l27.945-102.902C270.469,165.125,188.103,216.364,242.104,267.06z"/>
<g>
</g>
<g>
</g>
<g>
</g>
<g>
</g>
<g>
</g>
<g>
</g>
<g>
</g>
<g>
</g>
<g>
</g>
<g>
</g>
<g>
</g>
<g>
</g>
<g>
</g>
<g>
</g>
<g>
</g>
</svg>
