<svg height="512pt" viewBox="0 -22 512.00002 512" width="512pt" xmlns="http://www.w3.org/2000/svg"><path d="m52.964844 325.746094h52.964844v142.117187h-52.964844zm0 0" fill="#d2d7d6"/><path d="m229.515625 325.746094h52.96875v142.117187h-52.96875zm0 0" fill="#d2d7d6"/><path d="m406.070312 325.746094h52.964844v142.117187h-52.964844zm0 0" fill="#d2d7d6"/><g fill="#a9bfd1"><path d="m61.792969 26.484375h17.65625v52.964844h-17.65625zm0 0"/><path d="m185.378906 26.484375h17.65625v52.964844h-17.65625zm0 0"/><path d="m308.964844 26.484375h17.65625v52.964844h-17.65625zm0 0"/><path d="m432.550781 26.484375h17.65625v52.964844h-17.65625zm0 0"/><path d="m105.929688 335.449219h-52.964844l-22.773438-45.558594h98.515625zm0 0"/><path d="m282.484375 335.449219h-52.96875l-22.773437-45.558594h98.515624zm0 0"/><path d="m459.035156 335.449219h-52.964844l-22.777343-45.558594h98.515625zm0 0"/></g><path d="m35.308594 0h70.621094v35.308594h-70.621094zm0 0" fill="#ffd884"/><path d="m158.898438 0h70.617187v35.308594h-70.617187zm0 0" fill="#ffd884"/><path d="m282.484375 0h70.621094v35.308594h-70.621094zm0 0" fill="#ffd884"/><path d="m406.070312 0h70.621094v35.308594h-70.621094zm0 0" fill="#ffd884"/><path d="m0 70.621094h512v229.515625h-512zm0 0" fill="#eef1eb"/></svg>