<svg height="512pt" viewBox="-2 0 512 512.00066" width="512pt" xmlns="http://www.w3.org/2000/svg"><path d="m418.917969 344.277344v79.976562c0 24.085938-19.523438 43.609375-43.609375 43.609375h-53.492188v-35.3125h43.949219c9.855469 0 17.84375-7.984375 17.84375-17.839843v-70.433594zm0 0" fill="#d1e3ee"/><path d="m171.746094 432.550781c-24.375 0-44.136719-19.761719-44.136719-44.136719v-167.722656h-35.3125v167.722656c0 43.878907 35.570313 79.449219 79.449219 79.449219h17.65625v-35.3125zm0 0" fill="#d1e3ee"/><path d="m214.390625 388.414062h73.613281c23.550782.003907 42.640625 19.097657 42.640625 42.644532v80.941406h-158.898437v-80.941406c0-23.550782 19.09375-42.644532 42.644531-42.644532zm0 0" fill="#88d0ef"/><path d="m207.054688 273.65625v88.441406c0 14.535156 11.785156 26.316406 26.316406 26.316406h.167968v17.65625c0 9.75 7.90625 17.652344 17.65625 17.652344s17.65625-7.902344 17.65625-17.652344v-17.65625h.167969c14.53125 0 26.3125-11.78125 26.3125-26.316406v-88.441406zm0 0" fill="#e5b78f"/><path d="m259.960938 247.171875c-9.71875 0-17.59375 7.878906-17.59375 17.59375v.0625c0-9.75-7.90625-17.65625-17.65625-17.65625s-17.65625 7.90625-17.65625 17.65625v17.65625h88.277343c19.5 0 35.308594-15.808594 35.308594-35.3125zm0 0" fill="#77604f"/><path d="m207.054688 441.378906h88.277343v35.3125h-88.277343zm0 0" fill="#345a84"/><path d="m224.710938 476.691406h52.964843v35.308594h-52.964843zm0 0" fill="#e5b78f"/><path d="m0 103.53125c62.054688-62.050781 162.660156-62.050781 224.714844 0-62.054688 62.054688-162.660156 62.054688-224.714844 0zm0 0" fill="#eef1eb"/><path d="m158.699219 103.722656c0 25.597656-20.75 46.347656-46.34375 46.347656-25.597657 0-46.347657-20.75-46.347657-46.347656 0-25.59375 20.75-46.34375 46.347657-46.34375 25.59375 0 46.34375 20.75 46.34375 46.34375zm0 0" fill="#a55f40"/><path d="m507.195312 105.929688c0 58.503906-47.425781 105.933593-105.929687 105.933593-58.507813 0-105.933594-47.429687-105.933594-105.933593 0-58.503907 47.425781-105.929688 105.933594-105.929688 58.503906 0 105.929687 47.425781 105.929687 105.929688zm0 0" fill="#d1e3ee"/><g fill="#a9bfd1"><path d="m436.574219 114.757812h-35.308594c-2.34375 0-4.585937-.929687-6.242187-2.585937l-35.3125-35.308594 12.484374-12.484375 32.722657 32.726563h31.65625zm0 0"/><path d="m410.089844 35.308594v-34.867188c-2.921875-.238281-5.84375-.441406-8.824219-.441406-2.984375 0-5.90625.203125-8.828125.441406v34.871094h17.652344zm0 0"/><path d="m471.882812 114.757812h34.871094c.238282-2.921874.441406-5.84375.441406-8.828124 0-2.980469-.203124-5.902344-.441406-8.824219h-34.871094zm0 0"/><path d="m392.4375 176.550781v34.871094c2.921875.238281 5.84375.441406 8.824219.441406 2.984375 0 5.90625-.203125 8.828125-.441406v-34.871094zm0 0"/><path d="m330.644531 97.105469h-34.871093c-.238282 2.921875-.441407 5.84375-.441407 8.824219 0 2.984374.203125 5.90625.441407 8.828124h34.871093zm0 0"/><path d="m357.566406 49.753906-24.671875-24.675781c-4.496093 3.816406-8.671875 7.992187-12.484375 12.492187l24.71875 24.664063zm0 0"/><path d="m457.441406 62.234375 24.71875-24.664063c-3.8125-4.5-7.988281-8.675781-12.484375-12.492187l-24.714843 24.675781zm0 0"/><path d="m444.960938 162.109375 24.671874 24.675781c4.496094-3.816406 8.671876-7.996094 12.484376-12.492187l-24.71875-24.664063zm0 0"/><path d="m345.085938 149.628906-24.71875 24.664063c3.8125 4.496093 7.988281 8.675781 12.484374 12.492187l24.671876-24.675781zm0 0"/><path d="m92.296875 264.828125h35.3125v17.65625h-35.3125zm0 0"/><path d="m92.296875 317.792969h35.3125v17.65625h-35.3125zm0 0"/><path d="m92.296875 370.757812h35.3125v17.65625h-35.3125zm0 0"/><path d="m383.609375 388.414062h35.308594v17.65625h-35.308594zm0 0"/><path d="m134.953125 412.726562-25.246094 25.246094c3.6875 4.605469 7.875 8.792969 12.480469 12.480469l25.246094-25.246094c-4.960938-3.273437-9.207032-7.519531-12.480469-12.480469zm0 0"/><path d="m365.769531 432.550781h-3.472656l31.214844 31.214844c5.449219-2.53125 10.3125-6.171875 14.285156-10.679687l-27.71875-27.765626c-3.347656 4.554688-8.660156 7.238282-14.308594 7.230469zm0 0"/></g><path d="m56.988281 185.378906c0 29.253906 23.714844 52.964844 52.964844 52.964844 29.253906 0 52.964844-23.710938 52.964844-52.964844h-35.308594c0 9.75-7.90625 17.65625-17.65625 17.65625s-17.65625-7.90625-17.65625-17.65625zm0 0" fill="#d2d7d6"/><path d="m454.230469 308.964844c0 29.253906-23.714844 52.964844-52.964844 52.964844-29.253906 0-52.96875-23.710938-52.96875-52.964844h35.3125c0 9.75 7.902344 17.65625 17.65625 17.65625 9.75 0 17.652344-7.902344 17.652344-17.65625zm0 0" fill="#d2d7d6"/></svg>