<svg height="512pt" viewBox="0 -18 512.00006 512" width="512pt" xmlns="http://www.w3.org/2000/svg"><path d="m308.832031 247.066406c.003907-34.113281-27.648437-61.769531-61.757812-61.773437-6.273438-.003907-12.511719.953125-18.496094 2.828125-30.632813-14.414063-65.871094-15.496094-97.332031-2.980469-24.339844-23.902344-63.445313-23.550781-87.347656.789063-23.902344 24.335937-23.550782 63.441406.785156 87.34375 3.007812 2.953124 6.304687 5.589843 9.847656 7.867187-2.804688 16.84375-1.902344 34.09375 2.648438 50.550781l-57.179688 65.375 90.734375-8.25c7.429687 7.183594 15.730469 13.40625 24.707031 18.53125-4.167968 23.921875 11.851563 46.691406 35.773438 50.859375 23.925781 4.164063 46.695312-11.855469 50.859375-35.777343.09375-.542969.179687-1.089844.253906-1.636719 64.175781-13.273438 106.53125-74.714844 96.109375-139.414063 6.800781-10.148437 10.417969-22.097656 10.394531-34.3125zm0 0" fill="#eef1eb"/><path d="m490.15625 390.007812c40.316406-61.386718 23.234375-143.835937-38.15625-184.152343-61.386719-40.316407-143.835938-23.234375-184.152344 38.15625s-23.234375 143.835937 38.15625 184.152343c35.847656 23.542969 80.847656 28.351563 120.863282 12.917969l84.910156 35.398438zm0 0" fill="#d1e3ee"/><path d="m432.363281 61.765625v-16.765625c0-24.851562-20.148437-45-45.003906-45h-174.707031c-24.855469 0-45 20.148438-45 45v139.417969c0 24.851562 20.144531 45 45 45h174.707031c24.855469 0 45.003906-20.148438 45.003906-45v-52.0625h8.824219c38.984375 0 70.589844-31.601563 70.589844-70.589844zm0 0" fill="#88d0ef"/><g fill="#345a84"><path d="m88.238281 255.886719h114.707031v17.648437h-114.707031zm0 0"/><path d="m88.238281 291.183594h97.058594v17.648437h-97.058594zm0 0"/><path d="m88.238281 326.476562h97.058594v17.648438h-97.058594zm0 0"/><path d="m361.773438 282.359375h88.238281v17.648437h-88.238281zm0 0"/><path d="m344.125 317.652344h105.886719v17.648437h-105.886719zm0 0"/><path d="m247.0625 44.117188h88.238281v17.648437h-88.238281zm0 0"/><path d="m247.0625 79.414062h88.238281v17.648438h-88.238281zm0 0"/><path d="m247.0625 114.707031h97.0625v17.648438h-97.0625zm0 0"/><path d="m344.125 352.949219h105.886719v17.648437h-105.886719zm0 0"/></g><path d="m61.765625 61.765625h17.648437v26.472656h-17.648437zm0 0" fill="#ffd884"/><path d="m79.414062 44.117188h26.46875v17.648437h-26.46875zm0 0" fill="#ffd884"/><path d="m61.765625 17.648438h17.648437v26.46875h-17.648437zm0 0" fill="#ffd884"/><path d="m35.292969 44.117188h26.472656v17.648437h-26.472656zm0 0" fill="#ffd884"/></svg>