<svg height="512pt" viewBox="-3 0 512 512.00125" width="512pt" xmlns="http://www.w3.org/2000/svg"><path d="m0 285.246094h139.539062v226.753906h-139.539062zm0 0" fill="#a9bfd1"/><path d="m322.6875 154.429688h17.445312v52.328124h-17.445312zm0 0" fill="#88d0ef"/><path d="m392.894531 169.316406-12.332031-12.332031c15.859375-15.863281 15.859375-41.578125 0-57.4375l12.332031-12.332031c22.671875 22.664062 22.675781 59.417968.007813 82.09375-.003906 0-.003906.003906-.007813.007812zm0 0" fill="#88d0ef"/><path d="m363.738281 160.59375-12.332031-12.332031c11.046875-11.039063 11.050781-28.941407.011719-39.984375-.003907-.003906-.007813-.007813-.011719-.011719l12.332031-12.332031c17.855469 17.84375 17.863281 46.785156.019531 64.640625-.007812.007812-.011718.015625-.019531.019531zm0 0" fill="#88d0ef"/><path d="m473.503906 297.144531c-15.871094-15.839843-41.566406-15.839843-57.4375 0l-12.332031-12.332031c22.683594-22.644531 59.417969-22.644531 82.101563 0zm0 0" fill="#dd1c4b"/><path d="m464.785156 326.296875c-11.054687-11.023437-28.945312-11.023437-39.996094 0l-12.332031-12.332031c17.867188-17.820313 46.789063-17.820313 64.660157 0zm0 0" fill="#dd1c4b"/><path d="m269.925781 169.316406c-22.671875-22.667968-22.675781-59.421875-.011719-82.09375.003907-.003906.007813-.007812.011719-.007812l12.332031 12.332031c-15.863281 15.859375-15.863281 41.574219 0 57.4375zm0 0" fill="#88d0ef"/><path d="m299.078125 160.59375c-17.855469-17.84375-17.863281-46.785156-.015625-64.640625.003906-.007813.011719-.011719.015625-.019531l12.332031 12.332031c-11.042968 11.039063-11.046875 28.941406-.007812 39.988281.003906.003906.003906.003906.007812.007813zm0 0" fill="#88d0ef"/><path d="m375.015625 381.179688h130.820313v130.820312h-130.820313zm0 0" fill="#345a84"/><g fill="#88d0ef"><path d="m322.6875 119.542969h17.445312v17.441406h-17.445312zm0 0"/><path d="m165.707031 67.214844h17.441407v52.328125h-17.441407zm0 0"/><path d="m235.910156 82.101562-12.332031-12.332031c15.863281-15.859375 15.863281-41.578125 0-57.4375l12.332031-12.332031c22.671875 22.667969 22.675782 59.421875.011719 82.09375-.003906.003906-.007813.007812-.011719.007812zm0 0"/><path d="m206.757812 73.382812-12.332031-12.332031c11.042969-11.039062 11.046875-28.941406.007813-39.988281-.003906-.003906-.003906-.003906-.007813-.007812l12.332031-12.332032c17.855469 17.84375 17.863282 46.785156.015626 64.640625-.003907.007813-.011719.011719-.015626.019531zm0 0"/><path d="m112.941406 82.101562c-22.671875-22.667968-22.675781-59.421874-.007812-82.0937495l.007812-.0078125 12.332032 12.332031c-15.859376 15.859375-15.859376 41.578125 0 57.4375zm0 0"/><path d="m142.097656 73.382812c-17.855468-17.847656-17.863281-46.785156-.019531-64.640624.007813-.007813.011719-.015626.019531-.019532l12.332032 12.332032c-11.046876 11.039062-11.050782 28.941406-.011719 39.984374.003906.003907.007812.007813.011719.011719zm0 0"/><path d="m165.707031 32.332031h17.441407v17.441407h-17.441407zm0 0"/></g><path d="m226.753906 407.34375h69.769532v104.65625h-69.769532zm0 0" fill="#a9bfd1"/><path d="m226.753906 407.34375v-261.636719h-104.65625v366.292969h43.609375v-104.65625zm0 0" fill="#d1e3ee"/><path d="m436.066406 337.574219h17.441406v17.445312h-17.441406zm0 0" fill="#dd1c4b"/><path d="m72.328125 201.210938c-15.871094-15.839844-41.570313-15.839844-57.441406 0l-12.332031-12.332032c22.6875-22.644531 59.417968-22.644531 82.101562 0zm0 0" fill="#dd1c4b"/><path d="m63.605469 230.363281c-11.054688-11.023437-28.945313-11.023437-39.996094 0l-12.332031-12.332031c17.867187-17.824219 46.792968-17.824219 64.660156 0zm0 0" fill="#dd1c4b"/><path d="m34.886719 241.640625h17.441406v17.441406h-17.441406zm0 0" fill="#dd1c4b"/><path d="m375.015625 381.179688v-148.257813h-87.210937v279.078125h43.605468v-130.820312zm0 0" fill="#d2d7d6"/></svg>