<svg height="512pt" viewBox="-9 0 512 512.00066" width="512pt" xmlns="http://www.w3.org/2000/svg"><path d="m256 282.484375h-79.449219v88.273437h79.449219l35.3125-17.65625zm0 0" fill="#ffd884"/><path d="m256 282.484375 35.3125 70.617187-35.3125 17.65625zm0 0" fill="#fae9c4"/><path d="m211.863281 503.171875v-17.65625c121.882813 0 220.6875-98.804687 220.6875-220.6875s-98.804687-220.691406-220.6875-220.691406h-70.621093v-17.652344h70.621093c131.632813 0 238.34375 106.707031 238.34375 238.34375 0 131.632813-106.710937 238.34375-238.34375 238.34375zm0 0" fill="#345a84"/><path d="m70.621094 344.277344h35.308594v123.585937h-35.308594zm0 0" fill="#e5b78f"/><path d="m150.070312 335.449219h35.308594v132.414062h-35.308594zm0 0" fill="#e5b78f"/><path d="m185.378906 132.414062h-123.585937l-35.308594 35.308594 35.308594 35.3125v141.242188h123.585937v-61.792969h35.3125v-114.761719zm0 0" fill="#ee8eb4"/><path d="m220.691406 167.722656v114.761719c0 9.75-7.90625 17.652344-17.65625 17.652344s-17.65625-7.902344-17.65625-17.652344v-79.449219zm0 0" fill="#e5b78f"/><path d="m105.929688 512h-70.617188v-17.742188c0-14.578124 11.816406-26.394531 26.394531-26.394531h44.226563v44.136719zm0 0" fill="#eef1eb"/><path d="m150.070312 467.863281h44.226563c14.578125 0 26.394531 11.816407 26.394531 26.394531v17.742188h-70.621094zm0 0" fill="#eef1eb"/><path d="m52.964844 194.207031h70.621094c9.75 0 17.65625 7.902344 17.65625 17.65625 0 9.75-7.902344 17.652344-17.65625 17.652344h-70.621094c-9.75 0-17.65625-7.902344-17.65625-17.652344.003906-9.75 7.90625-17.65625 17.65625-17.65625zm0 0" fill="#e5b78f"/><path d="m114.757812 229.515625h17.65625v61.792969h-17.65625zm0 0" fill="#345a84"/><path d="m52.964844 229.515625h17.65625v44.140625h-17.65625zm0 0" fill="#345a84"/><path d="m414.898438 79.449219c0 34.125-27.667969 61.792969-61.792969 61.792969-34.128907 0-61.792969-27.667969-61.792969-61.792969 0-34.128907 27.664062-61.792969 61.792969-61.792969 34.125 0 61.792969 27.664062 61.792969 61.792969zm0 0" fill="#d1e3ee"/><path d="m494.34375 247.171875c0 34.128906-27.664062 61.792969-61.792969 61.792969-34.125 0-61.792969-27.664063-61.792969-61.792969 0-34.125 27.667969-61.792969 61.792969-61.792969 34.128907 0 61.792969 27.667969 61.792969 61.792969zm0 0" fill="#d1e3ee"/><path d="m441.378906 423.722656c0 34.128906-27.664062 61.792969-61.792968 61.792969-34.125 0-61.792969-27.664063-61.792969-61.792969 0-34.125 27.667969-61.792968 61.792969-61.792968 34.128906 0 61.792968 27.667968 61.792968 61.792968zm0 0" fill="#d1e3ee"/><path d="m123.585938 0c-19.5 0-35.308594 15.808594-35.308594 35.308594v61.792968c.027344 12.566407 6.757812 24.160157 17.65625 30.414063v22.554687c0 9.75 7.902344 17.652344 17.652344 17.652344 9.753906 0 17.65625-7.902344 17.65625-17.652344v-22.554687c10.898437-6.253906 17.628906-17.847656 17.65625-30.414063v-61.792968c0-19.5-15.808594-35.308594-35.3125-35.308594zm0 0" fill="#e5b78f"/><path d="m44.136719 87.5v27.257812h-44.136719v-25.90625c-.00390625-29.566406 23.957031-53.535156 53.523438-53.542968h.015624 34.738282v35.3125h-27.261719c-9.320313 0-16.878906 7.554687-16.878906 16.878906zm0 0" fill="#ffd884"/><path d="m88.277344 35.308594c0-19.5 15.808594-35.308594 35.308594-35.308594 19.503906 0 35.3125 15.808594 35.3125 35.308594zm0 0" fill="#ffd884"/><path d="m52.964844 282.484375h97.105468v123.585937h-97.105468zm0 0" fill="#dd1c4b"/><path d="m0 264.828125h88.277344v105.929687h-88.277344zm0 0" fill="#88d0ef"/><g fill="#a9bfd1"><path d="m326.621094 52.964844h52.964844v17.65625h-52.964844zm0 0"/><path d="m326.621094 88.277344h26.484375v17.652344h-26.484375zm0 0"/><path d="m406.070312 220.691406h52.964844v17.652344h-52.964844zm0 0"/><path d="m406.070312 256h26.480469v17.65625h-26.480469zm0 0"/><path d="m353.105469 397.242188h52.964843v17.65625h-52.964843zm0 0"/><path d="m353.105469 432.550781h26.480469v17.65625h-26.480469zm0 0"/></g></svg>