<svg height="512pt" viewBox="0 -18 512.00002 512" width="512pt" xmlns="http://www.w3.org/2000/svg"><path d="m0 52.964844h512v423.722656h-512zm0 0" fill="#345a84"/><path d="m0 335.445312 26.484375 26.484376 52.964844-26.484376 52.964843 26.484376 44.136719-17.65625 52.964844 26.484374h26.484375l26.484375 44.136719-26.484375 17.65625 17.65625 26.480469v17.65625h-273.65625zm0 0" fill="#a9bfd1"/><path d="m264.828125 247.171875v88.273437h26.480469l26.484375 26.484376 52.964843-8.828126 35.3125 17.65625 44.136719-17.65625h61.792969v-105.929687l-26.484375-26.484375-44.136719-8.828125h-141.242187zm0 0" fill="#a55f40"/><path d="m79.449219 105.929688-26.484375 17.65625v52.964843l88.277344 8.828125h79.449218l26.480469-26.484375h26.484375l26.480469-44.136719-26.480469-8.828124zm0 0" fill="#4fb86a"/><path d="m485.515625 273.652344v-17.652344h-17.652344v-17.65625h-17.65625v17.65625h-123.585937v-17.65625h-17.65625v17.65625h-17.65625v17.652344h17.65625v17.65625h-17.65625v17.65625h17.65625v17.65625h17.65625v-17.65625h123.585937v17.65625h17.65625v-17.65625h17.65625v-17.65625h-17.65625v-17.65625zm-35.308594 17.65625h-123.585937v-17.65625h123.585937zm0 0" fill="#eef1eb"/><path d="m441.378906 238.34375v-70.621094l-52.964844-52.964844-52.964843 52.964844v70.621094zm0 0" fill="#ffd884"/><path d="m35.308594 300.136719h150.070312v123.585937h-150.070312zm0 0" fill="#d2d7d6"/><path d="m176.550781 229.515625h52.964844v194.207031h-52.964844zm0 0" fill="#d1e3ee"/><path d="m194.207031 79.445312c-9.75 0-17.65625 7.90625-17.65625 17.65625v-70.621093c0-9.75-7.902343-17.65625-17.65625-17.65625-9.75 0-17.652343 7.90625-17.652343 17.65625v44.140625c0-14.628906-11.859376-26.484375-26.484376-26.484375s-26.484374 11.855469-26.484374 26.484375v61.792968h123.589843v-35.3125c0-9.75-7.90625-17.65625-17.65625-17.65625zm0 0" fill="#1f8b94"/><path d="m247.171875 8.828125h17.65625v123.585937h-17.65625zm0 0" fill="#1f8b94"/><path d="m276.242188 41.550781-20.242188-20.242187-20.242188 20.242187-12.480468-12.484375 26.480468-26.480468c3.449219-3.449219 9.035157-3.449219 12.484376 0l26.480468 26.480468zm0 0" fill="#1f8b94"/><path d="m276.242188 85.6875-20.242188-20.242188-20.242188 20.242188-12.480468-12.480469 26.480468-26.484375c3.449219-3.445312 9.035157-3.445312 12.484376 0l26.480468 26.484375zm0 0" fill="#1f8b94"/><g fill="#88d0ef"><path d="m61.792969 379.585938h17.65625v17.65625h-17.65625zm0 0"/><path d="m97.105469 379.585938h17.652343v17.65625h-17.652343zm0 0"/><path d="m132.414062 379.585938h17.65625v17.65625h-17.65625zm0 0"/><path d="m61.792969 344.273438h17.65625v17.65625h-17.65625zm0 0"/><path d="m97.105469 344.273438h17.652343v17.65625h-17.652343zm0 0"/><path d="m132.414062 344.273438h17.65625v17.65625h-17.65625zm0 0"/><path d="m344.277344 432.550781h17.652344v17.65625h-17.652344zm0 0"/><path d="m361.929688 414.894531h17.65625v17.65625h-17.65625zm0 0"/><path d="m379.585938 432.550781h17.65625v17.65625h-17.65625zm0 0"/><path d="m35.308594 238.34375h17.65625v17.65625h-17.65625zm0 0"/><path d="m52.964844 220.6875h17.65625v17.65625h-17.65625zm0 0"/><path d="m70.621094 238.34375h17.65625v17.65625h-17.65625zm0 0"/><path d="m370.757812 185.378906h35.3125v35.308594h-35.3125zm0 0"/></g></svg>