<svg height="512pt" viewBox="0 -137 512.00001 512" width="512pt" xmlns="http://www.w3.org/2000/svg"><path d="m203.035156 35.308594h158.894532l17.65625 17.65625h52.964843v123.585937h-44.136719l-52.964843 26.484375h-132.414063zm0 0" fill="#a55f40"/><path d="m44.136719 44.136719h52.96875v158.898437h-52.96875zm0 0" fill="#eef1eb"/><path d="m88.277344 44.136719 44.136718-44.136719h158.894532v35.308594h-88.273438v26.484375l132.414063 141.242187v35.308594h-176.550781l-35.3125-35.308594h-35.308594zm0 0" fill="#fae9c4"/><path d="m432.550781 132.414062h-105.929687l-35.3125-35.3125v-26.480468h-88.273438v-35.3125h158.894532l17.65625 17.65625h52.964843zm0 0" fill="#e5b78f"/><path d="m0 17.65625h52.964844v211.859375h-52.964844zm0 0" fill="#a9bfd1"/><path d="m423.722656 35.308594h88.277344v158.898437h-88.277344zm0 0" fill="#d1e3ee"/><path d="m459.035156 70.621094h17.65625v17.65625h-17.65625zm0 0" fill="#345a84"/></svg>