<svg height="511pt" viewBox="-26 0 511 511.99989" width="511pt" xmlns="http://www.w3.org/2000/svg"><path d="m444 114.757812c24.355469-30.425781 19.4375-74.835937-10.988281-99.191406-29.421875-23.550781-72.15625-19.832031-97.0625 8.453125-25.621094-29.253906-70.105469-32.195312-99.355469-6.574219-2.335938 2.042969-4.53125 4.238282-6.574219 6.574219-25.621093-29.253906-70.105469-32.195312-99.355469-6.574219-2.335937 2.042969-4.53125 4.238282-6.578124 6.574219-25.757813-29.25-70.347657-32.078125-99.597657-6.324219-28.28125 24.90625-32.003906 67.640626-8.453125 97.0625-20.714844 25.78125-20.714844 62.496094 0 88.277344-24.355468 30.425782-19.433594 74.832032 10.988282 99.191406 29.421874 23.550782 72.15625 19.828126 97.0625-8.453124 25.621093 29.25 70.105468 32.195312 99.355468 6.574218 2.335938-2.042968 4.53125-4.242187 6.578125-6.574218 25.617188 29.25 70.101563 32.195312 99.355469 6.574218 2.332031-2.042968 4.53125-4.242187 6.574219-6.574218 25.757812 29.25 70.347656 32.078124 99.597656 6.324218 28.28125-24.910156 32.003906-67.644531 8.453125-97.0625 20.714844-25.78125 20.714844-62.496094 0-88.277344zm0 0" fill="#88d0ef"/><path d="m193.214844 388.414062h73.613281c23.550781.003907 42.636719 19.097657 42.636719 42.644532v80.941406h-158.894532v-80.941406c0-23.550782 19.09375-42.644532 42.644532-42.644532zm0 0" fill="#a9bfd1"/><path d="m212.363281 379.585938h35.308594v35.308593h-35.308594zm0 0" fill="#e5b78f"/><path d="m185.878906 273.65625h88.277344v88.441406c0 14.535156-11.78125 26.316406-26.316406 26.316406h-35.644532c-14.535156 0-26.316406-11.78125-26.316406-26.316406zm0 0" fill="#e5b78f"/><path d="m195.21875 247.171875h16.632812c5.15625 0 9.339844 4.183594 9.339844 9.339844v25.96875h-35.3125v-25.96875c0-5.15625 4.183594-9.339844 9.339844-9.339844zm0 0" fill="#77604f"/><path d="m221.191406 256v26.480469h13.242188c8.269531-.003907 16 4.132812 20.585937 11.019531l2.964844 4.414062c4.578125 6.898438 12.304687 11.046876 20.585937 11.050782 8.273438.003906 16-4.128906 20.585938-11.015625l10.3125-15.464844v-44.140625l-11.414062 11.414062c-3.996094 3.996094-9.417969 6.242188-15.070313 6.242188s-11.070313-2.246094-15.066406-6.242188l-.558594-.554687c-6.484375-6.484375-16.390625-8.089844-24.59375-3.992187zm0 0" fill="#77604f"/><path d="m212.363281 476.6875v-61.792969h35.308594v97.105469h-97.101563v-35.3125zm0 0" fill="#d1e3ee"/><path d="m44.636719 220.6875 25.945312-25.941406c5.996094-5.996094 14.128907-9.363282 22.609375-9.367188 8.476563-.003906 16.609375-3.371094 22.605469-9.367187l17.117187-17.117188 35.308594 35.3125-25.941406 25.945313c-5.996094 5.992187-14.128906 9.363281-22.609375 9.363281-8.480469.003906-16.609375 3.371094-22.605469 9.367187l-17.117187 17.117188zm0 0" fill="#4fb86a"/><path d="m124.085938 203.035156c0 9.75-7.902344 17.652344-17.652344 17.652344-9.753906 0-17.65625-7.902344-17.65625-17.652344s7.902344-17.65625 17.65625-17.65625c9.75 0 17.652344 7.90625 17.652344 17.65625zm0 0" fill="#eef1eb"/><path d="m274.15625 97.101562v70.621094h-70.621094v-70.621094l35.3125-35.308593zm0 0" fill="#d2d7d6"/><path d="m294.398438 129.828125-55.550782-55.554687-55.554687 55.554687-12.480469-12.484375 61.792969-61.792969c3.445312-3.445312 9.035156-3.445312 12.480469 0l61.792968 61.792969zm0 0" fill="#a55f40"/><g fill="#345a84"><path d="m391.121094 185.378906h-66.207032l11.035157-44.136718h44.136719zm0 0"/><path d="m371.257812 203.035156h17.65625v35.308594h-17.65625zm0 0"/><path d="m327.121094 203.035156h17.65625v35.308594h-17.65625zm0 0"/></g><path d="m62.292969 105.929688c0-9.75 7.90625-17.65625 17.65625-17.65625h8.828125v-8.824219c0-9.753907 7.902344-17.65625 17.65625-17.65625 9.75 0 17.652344 7.902343 17.652344 17.65625v44.136719h-44.136719c-9.75 0-17.65625-7.90625-17.65625-17.65625zm0 0" fill="#ee8eb4"/><path d="m415.398438 88.277344c0-9.753906-7.90625-17.65625-17.65625-17.65625h-8.828126v-8.828125c0-9.75-7.902343-17.65625-17.65625-17.65625-9.75 0-17.652343 7.90625-17.652343 17.65625v44.136719h44.136719c9.75 0 17.65625-7.902344 17.65625-17.652344zm0 0" fill="#ee8eb4"/><path d="m309.464844 176.550781h97.105468v35.3125h-97.105468zm0 0" fill="#ffd884"/></svg>