<svg height="512pt" viewBox="-4 0 512 512.00062" width="512pt" xmlns="http://www.w3.org/2000/svg"><path d="m446.839844 182.292969h56.398437v329.707031h-56.398437zm0 0" fill="#a9bfd1"/><path d="m405.21875 147.585938v364.414062h54.636719v-364.414062z" fill="#d1e3ee"/><path d="m34.707031 512v-433.824219h314.304688c37.257812 0 67.460937 30.203125 67.460937 67.460938v366.363281zm0 0" fill="#eef1eb"/><path d="m416.472656 147.585938v-1.953126c0-37.253906-30.203125-67.457031-67.460937-67.457031h-1.953125v69.410157zm0 0" fill="#fae9c4"/><g fill="#7d8f9f"><path d="m338.382812 199.644531h43.382813v17.355469h-43.382813zm0 0"/><path d="m338.382812 251.703125h43.382813v17.355469h-43.382813zm0 0"/><path d="m338.382812 303.765625h43.382813v17.351563h-43.382813zm0 0"/><path d="m338.382812 355.824219h43.382813v17.351562h-43.382813zm0 0"/><path d="m338.382812 407.882812h43.382813v17.351563h-43.382813zm0 0"/><path d="m338.382812 459.941406h43.382813v17.351563h-43.382813zm0 0"/><path d="m242.941406 251.703125h43.382813v17.355469h-43.382813zm0 0"/><path d="m242.941406 303.765625h43.382813v17.351563h-43.382813zm0 0"/><path d="m242.941406 355.824219h43.382813v17.351562h-43.382813zm0 0"/><path d="m242.941406 407.882812h43.382813v17.351563h-43.382813zm0 0"/><path d="m242.941406 459.941406h43.382813v17.351563h-43.382813zm0 0"/><path d="m69.414062 303.765625h34.703126v17.351563h-34.703126zm0 0"/><path d="m69.414062 355.824219h43.382813v17.351562h-43.382813zm0 0"/><path d="m69.414062 407.882812h43.382813v17.351563h-43.382813zm0 0"/><path d="m69.414062 459.941406h43.382813v17.351563h-43.382813zm0 0"/></g><path d="m277.648438 147.585938c0 71.878906-58.269532 130.148437-130.148438 130.148437s-130.144531-58.269531-130.144531-130.148437c0-71.878907 58.265625-130.148438 130.144531-130.148438s130.148438 58.269531 130.148438 130.148438zm0 0" fill="#88d0ef"/><path d="m295 147.585938c.050781-81.460938-65.949219-147.539063-147.414062-147.585938-81.460938-.046875-147.539063 65.953125-147.585938 147.414062-.0429688 74.78125 55.882812 137.765626 130.148438 146.5625v87.695313h34.707031v-87.695313c74.207031-8.769531 130.125-71.664062 130.144531-146.390624zm-147.5 112.796874c-62.292969 0-112.792969-50.5-112.792969-112.796874 0-62.292969 50.5-112.792969 112.792969-112.792969 62.296875 0 112.796875 50.5 112.796875 112.792969 0 62.296874-50.5 112.796874-112.796875 112.796874zm0 0" fill="#345a84"/><path d="m104.117188 364.5h86.765624v147.5h-86.765624zm0 0" fill="#77604f"/><path d="m86.765625 147.585938h17.351563v52.058593h-17.351563zm0 0" fill="#dd1c4b"/><path d="m121.472656 121.558594h17.351563v78.085937h-17.351563zm0 0" fill="#dd1c4b"/><path d="m156.175781 95.527344h17.355469v104.117187h-17.355469zm0 0" fill="#dd1c4b"/><path d="m190.882812 130.234375h17.355469v69.410156h-17.355469zm0 0" fill="#dd1c4b"/></svg>