<svg height="511pt" viewBox="1 -108 511.99998 511" width="511pt" xmlns="http://www.w3.org/2000/svg"><path d="m512 156.703125h-86.78125l-34.710938-95.457031h-121.492187v199.59375h242.984375zm0 0" fill="#d1e3ee"/><path d="m52.066406.5h225.628906v260.339844h-225.628906zm0 0" fill="#d2d7d6"/><path d="m86.78125 260.839844c0-38.34375 31.078125-69.425782 69.421875-69.425782s69.425781 31.082032 69.425781 69.425782zm0 0" fill="#a9bfd1"/><path d="m338.441406 260.839844c0-38.34375 31.082032-69.425782 69.421875-69.425782 38.34375 0 69.425781 31.082032 69.425781 69.425782zm0 0" fill="#a9bfd1"/><path d="m381.832031 156.703125h-69.425781v-60.746094h52.066406zm0 0" fill="#88d0ef"/><path d="m477.289062 182.738281h34.710938v17.355469h-34.710938zm0 0" fill="#ffd884"/><path d="m190.914062 69.921875h49.039063c-9.5625-27.078125-39.265625-41.277344-66.347656-31.714844-14.820313 5.238281-26.476563 16.894531-31.710938 31.714844h-46.4375v34.714844h46.417969c9.5625 27.078125 39.269531 41.277343 66.347656 31.710937 14.820313-5.234375 26.480469-16.890625 31.714844-31.710937h-49.023438zm0 0" fill="#a55f40"/><g fill="#a9bfd1"><path d="m17.355469 43.890625h69.425781v17.355469h-69.425781zm0 0"/><path d="m0 113.3125h78.101562v17.355469h-78.101562zm0 0"/><path d="m17.355469 165.382812h78.101562v17.355469h-78.101562zm0 0"/></g><path d="m442.574219 260.839844c0 19.167968-15.539063 34.710937-34.710938 34.710937-19.167969 0-34.710937-15.542969-34.710937-34.710937 0-19.171875 15.542968-34.710938 34.710937-34.710938 19.171875 0 34.710938 15.539063 34.710938 34.710938zm0 0" fill="#345a84"/><path d="m190.914062 260.839844c0 19.167968-15.539062 34.710937-34.710937 34.710937s-34.710937-15.542969-34.710937-34.710937c0-19.171875 15.539062-34.710938 34.710937-34.710938s34.710937 15.539063 34.710937 34.710938zm0 0" fill="#345a84"/></svg>