<svg height="512.00002pt" viewBox="0 0 512.00002 512.00002" width="512.00002pt" xmlns="http://www.w3.org/2000/svg"><path d="m149.140625 0h213.71875c14.113281 0 25.554687 11.441406 25.554687 25.554688v460.890624c0 14.113282-11.441406 25.554688-25.554687 25.554688h-213.71875c-14.113281 0-25.554687-11.441406-25.554687-25.554688v-460.890624c0-14.113282 11.441406-25.554688 25.554687-25.554688zm0 0" fill="#345a84"/><path d="m123.585938 52.964844h264.828124v388.414062h-264.828124zm0 0" fill="#a9bfd1"/><path d="m247.171875 467.863281h17.65625v17.65625h-17.65625zm0 0" fill="#a9bfd1"/><path d="m335.449219 123.585938v26.484374h-44.140625l44.140625 70.621094v26.480469h176.550781v-123.585937zm0 0" fill="#88d0ef"/><path d="m176.550781 194.207031v26.484375h44.140625l-44.140625 70.617188v26.484375h-176.550781v-123.585938zm0 0" fill="#d1e3ee"/><path d="m353.101562 317.792969-61.792968-44.136719v44.136719h-26.480469v70.621093h194.207031v-70.621093zm0 0" fill="#eef1eb"/><g fill="#a9bfd1"><path d="m44.136719 247.171875h17.65625v17.65625h-17.65625zm0 0"/><path d="m79.449219 247.171875h17.65625v17.65625h-17.65625zm0 0"/><path d="m114.757812 247.171875h17.65625v17.65625h-17.65625zm0 0"/></g><path d="m379.585938 176.550781h17.65625v17.65625h-17.65625zm0 0" fill="#77604f"/><path d="m414.898438 176.550781h17.652343v17.65625h-17.652343zm0 0" fill="#77604f"/><path d="m450.207031 176.550781h17.65625v17.65625h-17.65625zm0 0" fill="#77604f"/><path d="m300.136719 344.277344h123.585937v17.652344h-123.585937zm0 0" fill="#a9bfd1"/></svg>