<svg height="512pt" viewBox="0 -26 512.00002 512" width="512pt" xmlns="http://www.w3.org/2000/svg"><path d="m0 0h512v282.484375h-512zm0 0" fill="#345a84"/><path d="m388.414062 79.449219h-52.964843v17.65625h25.996093l-104.5625 76.683593-65.269531-65.273437c-3.449219-3.445313-9.035156-3.445313-12.484375 0l-114.757812 114.761719 12.480468 12.480468 108.527344-108.515624 64.378906 64.378906c3.082032 3.089844 7.960938 3.464844 11.476563.882812l118.351563-86.800781v26.710937h17.65625v-44.136718c0-4.875-3.953126-8.828125-8.828126-8.828125zm0 0" fill="#88d0ef"/><path d="m423.722656 35.308594 26.484375 26.484375 26.484375-26.484375v52.96875h-52.96875zm0 0" fill="#ffd884"/><path d="m61.792969 105.929688c-14.625 0-26.484375 11.859374-26.484375 26.484374s11.859375 26.484376 26.484375 26.484376 26.484375-11.859376 26.484375-26.484376-11.859375-26.484374-26.484375-26.484374zm0 35.3125c-4.875 0-8.828125-3.953126-8.828125-8.828126s3.953125-8.828124 8.828125-8.828124 8.828125 3.953124 8.828125 8.828124-3.953125 8.828126-8.828125 8.828126zm0 0" fill="#eef1eb"/><path d="m185.378906 61.792969c0-14.625-11.855468-26.484375-26.480468-26.484375-14.628907 0-26.484376 11.859375-26.484376 26.484375s11.855469 26.484375 26.484376 26.484375c14.625 0 26.480468-11.859375 26.480468-26.484375zm-26.480468 8.828125c-4.878907 0-8.828126-3.953125-8.828126-8.828125s3.949219-8.828125 8.828126-8.828125c4.875 0 8.824218 3.953125 8.824218 8.828125s-3.949218 8.828125-8.824218 8.828125zm0 0" fill="#eef1eb"/><path d="m279.894531 59.207031-12.480469-12.484375-11.414062 11.414063-11.414062-11.414063-12.480469 12.484375 11.414062 11.414063-11.414062 11.414062 12.480469 12.480469 11.414062-11.414063 11.414062 11.414063 12.480469-12.480469-11.414062-11.414062zm0 0" fill="#dd1c4b"/><path d="m196.792969 187.964844-11.414063 11.414062-11.414062-11.414062-12.480469 12.484375 11.414063 11.414062-11.414063 11.414063 12.480469 12.480468 11.414062-11.414062 11.414063 11.414062 12.484375-12.480468-11.414063-11.414063 11.414063-11.414062zm0 0" fill="#dd1c4b"/><path d="m361.929688 203.035156c0 14.625-11.855469 26.480469-26.480469 26.480469s-26.484375-11.855469-26.484375-26.480469 11.859375-26.484375 26.484375-26.484375 26.480469 11.859375 26.480469 26.484375zm0 0" fill="#a55f40"/><path d="m300.136719 308.964844v132.414062c0 9.75 7.90625 17.65625 17.65625 17.65625s17.65625-7.90625 17.65625-17.65625c0 9.75 7.902343 17.65625 17.65625 17.65625 9.75 0 17.652343-7.90625 17.652343-17.65625v-132.414062zm0 0" fill="#a9bfd1"/><path d="m388.414062 158.898438c-9.75 0-17.65625 7.902343-17.65625 17.652343v52.964844h-105.929687v70.621094h35.308594v17.65625h70.621093v-35.308594h35.3125v-105.933594c0-9.75-7.90625-17.652343-17.65625-17.652343zm0 0" fill="#e5b78f"/><path d="m300.136719 229.515625h70.621093v88.277344h-70.621093zm0 0" fill="#d1e3ee"/></svg>