<svg height="512pt" viewBox="0 -79 512.00002 512" width="512pt" xmlns="http://www.w3.org/2000/svg"><path d="m0 0h512v353.101562h-512zm0 0" fill="#a9bfd1"/><path d="m0 0h512v70.621094h-512zm0 0" fill="#d1e3ee"/><g fill="#345a84"><path d="m35.308594 26.484375h17.65625v17.652344h-17.65625zm0 0"/><path d="m70.621094 26.484375h17.65625v17.652344h-17.65625zm0 0"/><path d="m105.929688 26.484375h17.65625v17.652344h-17.65625zm0 0"/></g><path d="m35.3125 209.457031c62.054688-62.050781 162.660156-62.050781 224.714844 0-62.054688 62.054688-162.660156 62.054688-224.714844 0zm0 0" fill="#dd1c4b"/><path d="m194.011719 209.65625c0 25.59375-20.75 46.34375-46.34375 46.34375s-46.34375-20.75-46.34375-46.34375c0-25.597656 20.75-46.34375 46.34375-46.34375s46.34375 20.746094 46.34375 46.34375zm0 0" fill="#eef1eb"/><path d="m238.347656 85.871094c62.054688-62.050782 162.660156-62.050782 224.714844 0-62.054688 62.054687-162.660156 62.054687-224.714844 0zm0 0" fill="#dd1c4b"/><path d="m397.046875 86.070312c0 25.59375-20.75 46.34375-46.34375 46.34375-25.597656 0-46.347656-20.75-46.347656-46.34375 0-25.597656 20.75-46.347656 46.347656-46.347656 25.59375 0 46.34375 20.75 46.34375 46.347656zm0 0" fill="#eef1eb"/><path d="m313.507812 273.652344 16.027344-16.03125c32.515625-32.515625 85.234375-32.515625 117.75 0l16.03125 16.03125-16.03125 16.027344c-32.515625 32.515624-85.234375 32.515624-117.75 0zm0 0" fill="#dd1c4b"/><path d="m428.773438 273.65625c0 22.289062-18.070313 40.359375-40.359376 40.359375-22.289062 0-40.359374-18.070313-40.359374-40.359375 0-22.292969 18.070312-40.359375 40.359374-40.359375 22.289063 0 40.359376 18.066406 40.359376 40.359375zm0 0" fill="#eef1eb"/></svg>